<?xml version="1.0" encoding="UTF-8"?>
<svg id="b" data-name="Layer 2" xmlns="http://www.w3.org/2000/svg" width="1509.6" height="1509.6" viewBox="0 0 1509.6 1509.6">
  <g id="c" data-name="OLD ASSETS">
    <g>
      <path d="M1008,754.8h501.6c0-49.1-4.8-98.5-14.4-147-9.6-48.6-24-96.2-43-142-19-45.7-42.4-89.5-69.9-130.6-27.5-41-58.9-79.3-93.8-114.2-34.9-34.9-73.1-66.3-114.2-93.8-41-27.5-84.8-50.9-130.6-69.9-45.7-19-93.4-33.4-142-43C853.3,4.8,803.9,0,754.8,0c-49.1,0-98.5,4.8-147,14.4-48.6,9.6-96.2,24-142,43-45.7,19-89.5,42.4-130.6,69.9-41,27.5-79.3,58.9-114.2,93.8-34.9,34.9-66.3,73.1-93.8,114.2-27.5,41-50.9,84.8-69.9,130.6-19,45.7-33.4,93.4-43,142C4.8,656.3,0,705.8,0,754.8c0,49.1,4.8,98.5,14.4,147,9.6,48.6,24,96.2,43,142,19,45.7,42.4,89.5,69.9,130.6,27.5,41,58.9,79.3,93.8,114.2,34.9,34.9,73.1,66.3,114.2,93.8,41,27.5,84.8,50.9,130.6,69.9,45.7,19,93.4,33.4,142,43,48.5,9.6,98,14.4,147,14.4,49.1,0,98.5-4.8,147-14.4,48.6-9.6,96.2-24,142-43,45.7-19,89.5-42.4,130.6-69.9,41-27.5,79.3-58.9,114.2-93.8,34.9-34.9,66.3-73.1,93.8-114.2,27.5-41,50.9-84.8,69.9-130.6,19-45.7,33.4-93.4,43-142,9.6-48.5,14.4-98,14.4-147h-501.6c0,33.8-6.5,66.4-19.1,96.8-12.6,30.4-31.4,58.6-55,82.2-23.6,23.6-51.8,42.4-82.2,55-30.5,12.6-63,19.1-96.8,19.1-33.8,0-66.4-6.5-96.8-19.1-30.4-12.6-58.6-31.4-82.2-55-23.6-23.6-42.4-51.8-55-82.2-12.6-30.5-19.1-63-19.1-96.8,0-33.8,6.5-66.4,19.1-96.8,12.6-30.4,31.4-58.6,55-82.2,23.6-23.6,51.8-42.4,82.2-55,30.5-12.6,63-19.1,96.8-19.1,33.8,0,66.4,6.5,96.8,19.1,30.4,12.6,58.6,31.4,82.2,55,23.6,23.6,42.4,51.8,55,82.2,12.6,30.5,19.1,63,19.1,96.8Z" fill="none"/>
      <path d="M996.2,936.5c11.9-17.2,21.1-35.4,27.9-53.5,6.7-18.2,11.1-36.4,13-54.1-2.3,19.5-7.3,39.5-15.3,59.4-7.9,19.9-19.1,39.5-33.2,58-7.6,9.9-15.9,19.4-24.8,28.4l-3.4,3.3-1.7,1.7-1.7,1.6-3.5,3.3-3.6,3.2-1.8,1.6-1.8,1.5-3.6,3.1-3.7,3c-1.2,1-2.5,2-3.8,3l-3.8,2.9c-1.3,1-2.6,1.9-3.9,2.9-2.6,2-5.3,3.7-7.9,5.6-5.4,3.6-10.8,7.1-16.4,10.4-11.1,6.6-22.7,12.4-34.7,17.5-1.5.7-3,1.2-4.5,1.9-1.5.6-3,1.2-4.5,1.8-3.1,1.1-6.1,2.4-9.2,3.4l-4.6,1.6-4.7,1.5-2.3.8-2.3.7-4.7,1.4c-12.6,3.4-25.4,6.2-38.4,8.1-13,1.8-26.2,2.9-39.4,3.1-13.3.2-26.4-.4-39.4-1.8-30.6-3.4-60.5-11.3-88.9-23.6-28.3-12.3-55-28.9-78.8-49.1-23.8-20.2-44.7-43.9-61.6-70-17-26.1-30.1-54.4-38.9-84-8.8-29.6-13.4-60.4-13.7-91.7-.2-7.8.1-15.5.5-23.2.4-7.7,1.2-15.3,2-23,1-7.6,2.1-15.2,3.6-22.6.3-1.9.8-3.7,1.2-5.6.4-1.9.7-3.7,1.2-5.6l1.3-5.6,1.4-5.5c7.8-29.4,19.5-57.7,34.6-84.1,15.1-26.3,33.5-50.6,54.4-72.2l3.9-4c1.3-1.4,2.7-2.6,4-3.9,2.6-2.7,5.4-5.2,8.1-7.7,5.6-5,11.1-10,16.9-14.6,11.5-9.5,23.6-18.1,36-26,12.4-7.9,25.3-15.1,38.4-21.6,13.1-6.4,26.6-12,40.2-17,27.3-9.8,55.6-16.6,84-20.7,28.4-4,56.7-5.3,84.6-4.2,27.8,1.1,55.2,4.7,81.7,10.2,26.5,5.5,52.2,13,76.9,21.9,12.3,4.4,24.4,9.2,36.2,14.2,11.8,5,23.3,10.3,34.6,15.8,5.7,2.7,11.2,5.5,16.7,8.3,2.7,1.4,5.5,2.9,8.2,4.3,2.7,1.4,5.4,2.9,8.1,4.3,1.3.7,2.7,1.4,4,2.1,1.3.7,2.6,1.5,4,2.2,2.6,1.5,5.3,2.9,7.9,4.4,5.2,3,10.4,5.9,15.5,8.9,31.2,18.1,59.5,36.3,85.9,52.6,26.3,16.3,50.9,30.7,74.4,41.5,5.9,2.7,11.7,5.2,17.5,7.4,5.8,2.2,11.5,4.2,17.3,5.9,5.7,1.7,11.4,3.1,17.1,4.2,5.6,1.1,11.3,1.9,16.9,2.4,22.4,1.9,44.6-1.4,66.3-11.7,1,3.5,1.9,7,2.8,10.5.9,3.5,1.8,7,2.7,10.5-7.7,3.4-15.4,5.9-23.2,7.7-10.3,2.3-20.7,3.3-31,3.1-10.4-.2-20.8-1.6-31.3-4.1-5.2-1.2-10.5-2.7-15.8-4.4-5.3-1.7-10.6-3.7-15.9-5.8-10.7-4.3-21.4-9.5-32.4-15.4-22-11.8-44.7-26.4-69.2-42.4-24.4-16-50.6-33.5-79.2-50.9-5-3.1-10.2-6.1-15.4-9.2-5.3-3-10.4-6.1-15.8-9-5.3-3-10.7-5.9-16.1-8.9-2.7-1.4-5.5-2.9-8.2-4.3-2.7-1.5-5.6-2.8-8.3-4.3-11.2-5.7-22.6-11.2-34.3-16.4-11.7-5.2-23.7-10.1-36-14.8-24.5-9.2-50-17.1-76.4-22.9-26.4-5.9-53.5-9.8-81.2-11.3-13.8-.7-27.8-.9-41.8-.4-14,.5-28.1,1.7-42.2,3.6-14.1,1.9-28.3,4.4-42.2,7.6-14,3.2-27.8,7.3-41.4,12-6.8,2.3-13.5,5-20.2,7.6-6.7,2.8-13.3,5.6-19.8,8.8-6.6,3.1-13,6.5-19.4,9.9-1.6.9-3.2,1.8-4.8,2.7l-2.4,1.3-2.3,1.4c-1.6.9-3.1,1.8-4.7,2.8-1.5,1-3.1,1.9-4.6,2.9-12.4,7.7-24.3,16.3-35.9,25.4-5.7,4.7-11.4,9.3-16.9,14.4l-2.1,1.8c-.7.6-1.3,1.3-2,1.9-1.4,1.3-2.7,2.5-4.1,3.8l-4,3.9-2,1.9-1.9,2c-41.7,42.3-73.4,95.7-89.1,153.6-7.9,29-11.8,59.1-11.6,89.7,0,7.6.4,15.4.9,23,.5,7.7,1.5,15.3,2.5,22.8,1.2,7.5,2.5,15.1,4.1,22.5,1.7,7.4,3.5,14.8,5.6,22.1,8.5,29.2,21.3,57.2,37.9,82.9,16.6,25.7,37.1,49.2,60.5,69.1,23.4,20,49.6,36.4,77.5,48.6,27.9,12.2,57.4,20,87.5,23.3,12.7,1.4,25.6,2,38.6,1.8,13-.2,25.9-1.3,38.7-3,12.7-1.8,25.3-4.5,37.6-7.9,6.1-1.8,12.3-3.6,18.2-5.8,3-1,6-2.2,9-3.3,1.5-.5,2.9-1.2,4.4-1.8,1.5-.6,3-1.1,4.4-1.8,11.7-5,23.1-10.7,34-17.2,5.5-3.2,10.8-6.7,16-10.1l3.9-2.7,1.9-1.3,1.9-1.4,3.8-2.8,3.7-2.9,1.9-1.4,1.8-1.5,3.7-3,3.6-3.1,1.8-1.5,1.7-1.6,3.5-3.1,3.4-3.2c2.3-2.1,4.5-4.4,6.7-6.5,8.7-8.8,16.8-18.2,24.3-27.8,18.1-23.7,30.9-49.3,38.8-74.8-4.6,14.4-10.6,29-18.4,43.1-3.9,7.1-8.2,14-12.9,20.9-4.7,6.8-9.9,13.5-15.4,20-7.9,9.3-16.6,18.2-25.7,26.6-1.1,1.1-2.3,2.1-3.5,3.1-1.2,1-2.3,2.1-3.5,3.1-2.4,2-4.7,4-7.2,5.9-4.8,4-9.9,7.6-15,11.3-20.6,14.3-43.1,26.2-66.9,34.8-5.9,2.2-12,4.1-18,5.9-3.1.8-6.1,1.8-9.2,2.5l-4.6,1.2-4.6,1-2.3.5-2.3.5-4.7,1-4.7.8c-1.6.3-3.1.6-4.7.8l-4.7.7c-1.6.2-3.2.4-4.8.6-3.2.4-6.4.7-9.5,1-1.6.2-3.2.3-4.8.4l-4.8.3-4.8.2h-2.4c0,.1-2.4.2-2.4.2h-4.8c-1.6.1-3.2,0-4.8,0-1.6,0-3.2,0-4.8,0l-4.8-.2c-1.6,0-3.2-.1-4.8-.2l-4.8-.3-4.8-.4c-1.6-.1-3.2-.2-4.8-.4l-4.7-.5c-1.6-.1-3.1-.4-4.7-.6-1.6-.2-3.1-.4-4.7-.6l-4.7-.7c-29.4-4.8-57.9-14.1-84.7-27.4-26.8-13.3-51.6-30.8-73.5-51.5-21.9-20.7-40.7-44.5-55.6-70.4-14.9-25.8-26-53.6-32.9-82.4-1.7-7.2-3.3-14.4-4.4-21.8l-.5-2.7-.4-2.8-.8-5.5c-.4-3.7-.9-7.4-1.2-11.1-1.5-14.8-1.8-29.9-1.3-44.6,1.2-29.6,6.4-58.5,15.3-86.1,8.9-27.6,21.4-54.1,37.1-78.4,15.7-24.3,34.4-46.5,55.2-66.1,10.5-9.7,21.4-18.9,32.8-27.2,11.4-8.4,23.3-16,35.4-23,1.5-.9,3.1-1.7,4.6-2.6,1.5-.8,3.1-1.7,4.6-2.5,1.6-.8,3.1-1.6,4.7-2.4l2.3-1.2,2.4-1.1c1.6-.8,3.1-1.5,4.7-2.3,1.6-.7,3.2-1.5,4.7-2.2,3.1-1.5,6.4-2.8,9.5-4.3,12.8-5.5,25.8-10.2,39-14.2,13.2-4.1,26.6-7.3,40.2-9.9,13.6-2.6,27.2-4.6,40.8-5.9,27.2-2.6,54.1-2.4,80.6,0,52.9,4.7,103.7,18.8,150.1,38.2,46.5,19.3,88.8,43.7,127.2,68.8,29.4,19.2,56,38.5,81,56,6.3,4.4,12.4,8.7,18.5,12.8,3,2.1,6,4.1,9,6.1,3,2,6,4,8.9,5.9,2.9,1.9,5.9,3.8,8.8,5.7,2.9,1.8,5.8,3.7,8.7,5.4,2.9,1.8,5.8,3.5,8.7,5.1,2.8,1.7,5.7,3.3,8.5,4.9,22.7,12.6,45,21.8,67.3,26.3,22.3,4.4,44.9,4,67.7-3,.7,3.4,1.2,6.9,1.9,10.3.6,3.4,1.3,6.9,1.7,10.3-5.4,1.5-10.8,2.7-16.2,3.4-10.9,1.6-21.7,1.8-32.5.8-10.8-1-21.5-3.2-32.1-6.4-5.3-1.6-10.6-3.5-15.9-5.6-5.3-2.1-10.6-4.5-15.9-7-5.3-2.6-10.7-5.3-16-8.3-5.3-3-10.8-6.1-16.1-9.5-43.2-26.7-88.7-64.8-144.2-102.5-9.5-6.5-19.3-12.9-29.3-19.2-10-6.3-20.3-12.5-30.8-18.5-21-12.1-43.1-23.3-66.1-33.3-23.1-10-47.1-18.7-72.1-25.5-24.9-6.8-50.7-11.8-76.9-14.5-13.1-1.3-26.4-2.2-39.7-2.3-13.3-.1-26.8.3-40.2,1.5-13.5,1.1-27,2.9-40.5,5.3-13.5,2.5-26.8,5.6-40,9.5-13.2,3.8-26.1,8.4-38.8,13.7-12.7,5.2-25.1,11.3-37.2,18-1.5.8-3,1.7-4.5,2.6-1.5.9-3,1.7-4.5,2.6-2.9,1.9-6,3.5-8.9,5.5-1.5.9-2.9,1.9-4.4,2.8-1.4,1-2.9,1.9-4.3,2.9-.7.5-1.5,1-2.2,1.5l-2.1,1.5c-1.4,1-2.9,2-4.3,3-11.3,8.2-22.3,17-32.6,26.6-41.6,38.1-74.3,87.4-92.2,141.8-9,27.2-14.2,55.6-15.5,84.8v2.7c-.1,0-.2,2.7-.2,2.7,0,1.8-.1,3.6-.1,5.5,0,3.7,0,7.3,0,11,0,3.7.3,7.4.4,11,0,1.8.3,3.7.4,5.5l.2,2.7c0,.9.2,1.8.3,2.7l.5,5.5.7,5.4c.2,1.8.5,3.6.7,5.4.3,1.8.5,3.6.8,5.4,1.1,7.2,2.7,14.3,4.3,21.4,6.7,28.3,17.4,55.7,32.1,81.2,14.6,25.5,33,49,54.5,69.4,21.5,20.4,45.9,37.6,72.2,50.8,26.3,13.2,54.4,22.3,83.3,27,3.1.5,6.1,1,9.2,1.4,1.5.2,3.1.4,4.6.6l4.6.5c1.5.2,3.1.3,4.7.4l4.7.4,4.7.2c1.6,0,3.1.2,4.7.2,3.1,0,6.3.2,9.4.2,1.6,0,3.2,0,4.7,0h4.7c0-.1,2.4-.1,2.4-.1h2.4c0-.1,4.7-.3,4.7-.3l4.7-.3c1.6-.1,3.1-.2,4.7-.4,25-2.3,49.4-7.6,72.7-16.2,5.8-2.1,11.5-4.5,17.2-6.9,2.8-1.3,5.7-2.5,8.4-3.9l4.2-2,4.1-2.1,2.1-1,2-1.1,4.1-2.2,4-2.3,2-1.1,2-1.2,3.9-2.4,3.9-2.5c2.6-1.6,5.1-3.4,7.7-5.1,5-3.6,10-7.1,14.7-11,2.4-1.9,4.7-3.9,7.1-5.8,1.2-1,2.3-2,3.4-3,1.1-1,2.3-2,3.4-3,9-8.2,17.5-16.8,25.2-26,14-16.5,25.5-34.2,34-52.3,8.6-18.1,14.4-36.6,17.8-54.7-3.7,19.7-10.3,40-20.4,59.6-5,9.8-10.7,19.5-17.4,28.9-6.6,9.4-14,18.5-22.2,27.1l-3.1,3.3-3.2,3.2-1.6,1.6-1.6,1.5-3.3,3.1c-4.5,4-9,8.1-13.7,11.9-9.4,7.7-19.4,14.8-29.7,21.3-1.3.8-2.6,1.6-3.9,2.4-1.3.8-2.6,1.6-3.9,2.4-2.7,1.5-5.3,3.1-8,4.4-5.4,3-10.9,5.6-16.5,8.2l-4.2,1.8-2.1.9-2.1.9-4.3,1.8-4.3,1.6c-2.8,1.2-5.8,2.1-8.7,3.1-1.5.5-2.9.9-4.4,1.4-1.5.5-2.9,1-4.4,1.4-11.8,3.5-23.8,6.5-36,8.4l-4.6.8-4.6.6-2.3.3-2.3.3-4.6.5c-1.5.2-3.1.3-4.6.4-1.6.1-3.1.3-4.7.4-3.1.2-6.2.4-9.4.5l-4.7.2h-4.7s-2.4,0-2.4,0h-2.4s-4.7-.1-4.7-.1c-1.6,0-3.1-.1-4.7-.2-1.6,0-3.1,0-4.7-.2-3.1-.2-6.2-.4-9.3-.7l-4.6-.4-4.6-.6-2.3-.3c-.8,0-1.5-.2-2.3-.3l-4.6-.6c-1.5-.2-3-.5-4.5-.8-1.5-.3-3-.5-4.5-.8-3-.6-6-1.1-9-1.8-28.1-6.2-55.1-16.6-80.3-30.9-25.1-14.2-48.2-32.3-68.2-53.3-20-21-36.7-44.8-49.7-70.2-13-25.5-22.1-52.5-27.2-80.3-2.6-13.9-4.2-28.1-4.8-42.3,0-3.6-.3-7.1-.3-10.7-.1-3.6,0-7.1,0-10.7,0-1.8.1-3.5.2-5.3v-2.7c0,0,.3-2.6.3-2.6l.3-5.3.5-5.3c2.6-28,9-55.2,18.8-81,19.5-51.7,53.2-97.7,94.6-132.6,5.2-4.3,10.4-8.6,15.9-12.6l2-1.5,2-1.5c1.4-1,2.7-2,4.1-3,1.4-.9,2.8-1.9,4.2-2.8l2.1-1.4,2.1-1.4c1.4-.9,2.8-1.8,4.2-2.8,1.4-.9,2.8-1.8,4.3-2.6l2.1-1.3,2.2-1.3c1.4-.9,2.9-1.7,4.3-2.6,5.8-3.3,11.6-6.5,17.5-9.5,11.8-6,24-11.2,36.3-15.8,12.3-4.6,24.9-8.4,37.6-11.7,12.7-3.2,25.6-5.8,38.7-7.6,13-1.9,26-3.1,38.9-3.7h2.4c0-.1,2.4-.2,2.4-.2,1.6,0,3.2-.1,4.8-.2,3.2,0,6.4,0,9.6-.1,3.2,0,6.4,0,9.6.1,1.6,0,3.2.1,4.8.2,1.6,0,3.2,0,4.8.2,12.7.6,25.4,1.8,37.9,3.5,50,6.8,97.8,22.5,141.4,43.1,21.8,10.3,42.6,21.8,62.5,33.9,9.9,6.1,19.6,12.4,29,18.7,9.5,6.3,18.6,12.9,27.7,19.4,27.5,20,52.5,40.1,76.1,58.7,23.5,18.6,45.7,35.7,67.5,49.8,5.4,3.5,10.9,6.9,16.3,10,5.4,3.1,10.8,6.1,16.3,8.8,5.4,2.7,10.8,5.2,16.3,7.4,5.4,2.2,11,4.2,16.5,5.9,22,6.7,44.6,9,68,5.2.4,3.4.7,6.7,1,10.1.3,3.4.7,6.7.9,10.1-2.8.4-5.6.7-8.4.9-11.5.8-22.7.2-33.8-1.6-11.1-1.8-22-4.8-32.7-8.9-21.5-8.1-42.3-20.3-63.6-35.2-5.4-3.7-10.6-7.6-16-11.7-2.7-2-5.4-4.1-8.1-6.2-2.7-2.1-5.4-4.2-8.1-6.4-2.7-2.2-5.4-4.4-8.2-6.6-2.8-2.2-5.6-4.5-8.3-6.7-2.7-2.3-5.6-4.6-8.4-6.9-2.8-2.3-5.6-4.7-8.5-7-11.4-9.5-23.2-19.3-35.5-29.3-12.3-10-25-20.1-38.4-30.1-35.6-26.9-74.8-52.8-118.1-73.9-21.6-10.6-44.2-19.9-67.7-27.5-23.4-7.6-47.7-13.5-72.4-17.2-24.8-3.8-50.1-5.2-75.6-4.3h-2.4c0,0-2.4.2-2.4.2-1.6,0-3.2.2-4.8.3-3.2.2-6.4.5-9.6.7-3.2.3-6.4.6-9.6,1-1.6.2-3.2.4-4.8.6l-2.4.3-2.4.3c-12.9,1.7-25.7,4.1-38.4,7.2-12.6,3.1-25.1,6.8-37.3,11.2-12.2,4.4-24.2,9.6-36,15.3-23.4,11.7-45.8,26-66.3,43.1-20.5,17.1-39.2,36.8-55.1,58.7-15.9,21.9-29.1,45.9-38.9,71.3-9.8,25.4-16.2,52.1-18.9,79.6-.6,6.9-1.1,13.8-1.3,20.8,0,1.7,0,3.5,0,5.2,0,1.8,0,3.5,0,5.3v5.3s.2,5.3.2,5.3v2.6c0,0,.3,2.6.3,2.6.1,1.8.2,3.5.3,5.3.3,3.5.5,7,1,10.5.3,3.5.9,6.9,1.3,10.4l.8,5.2c.2,1.7.6,3.4.9,5.1,5,27.4,13.8,54,26.5,79.1,12.6,25.1,29.1,48.5,48.7,69.2,19.6,20.7,42.3,38.5,66.9,52.5,24.7,14,51.3,24.3,78.9,30.4,2.9.7,5.8,1.2,8.8,1.8,1.5.3,2.9.5,4.4.8,1.5.2,2.9.5,4.4.7l4.5.6c.7.1,1.5.2,2.2.3l2.2.3,4.5.5,4.5.4c3,.3,6.1.4,9.1.7,1.5.1,3,.1,4.6.2,1.5,0,3,.2,4.6.2h4.6c0,0,2.3.1,2.3.1h2.3s4.6,0,4.6,0l4.6-.2c3.1,0,6.1-.3,9.2-.5,1.5,0,3-.2,4.6-.4,1.5-.1,3-.2,4.6-.4l4.5-.5,2.3-.2,2.3-.3,4.5-.6,4.5-.7c12-1.9,23.7-4.8,35.2-8.2,1.5-.4,2.9-.9,4.3-1.4,1.4-.5,2.9-.9,4.3-1.4,2.8-1.1,5.7-1.9,8.5-3.1l4.2-1.6,4.2-1.7,2.1-.8,2.1-.9,4.1-1.8c5.4-2.6,10.9-5.1,16.1-8,2.7-1.4,5.2-2.9,7.9-4.3,1.3-.7,2.6-1.5,3.9-2.3,1.3-.8,2.6-1.5,3.8-2.3,10.1-6.4,19.9-13.2,29.1-20.8,4.6-3.7,9-7.7,13.4-11.6l3.2-3.1,1.6-1.5,1.6-1.6,3.1-3.1,3-3.2c13.6-14.3,25-29.9,34-45.9,9.1-16.1,15.8-32.7,20.3-49.1-5.1,18.1-12.8,36.3-23.2,53.8-5.2,8.8-11.2,17.3-17.8,25.6-6.6,8.2-13.9,16.2-21.8,23.7-17,16.1-36.3,30.4-57.2,41.8-20.9,11.6-43.3,20.2-66.6,26-11.6,2.9-23.5,4.9-35.4,6.3-12,1.3-24.1,1.9-36.3,1.7-12.2-.2-24.2-1.2-36.1-2.9-11.8-1.8-23.4-4.2-34.7-7.3-26.7-7.4-52.3-18.9-75.7-33.9-23.4-15-44.7-33.6-62.8-54.7-18.1-21.1-32.9-44.7-43.9-69.6-11-24.9-18.3-51.1-21.9-77.9-.8-6.7-1.5-13.5-1.9-20.2-.1-1.7-.1-3.4-.2-5.1v-2.5c-.2-.9-.2-1.7-.2-2.6v-5.1c-.1,0,0-5.1,0-5.1,0-1.7,0-3.4,0-5.1,0-1.7,0-3.4.1-5.1l.3-5.1c0-1.7.3-3.4.4-5,.2-3.4.6-6.7.9-10l.6-5,.3-2.5.4-2.5c3.8-26.3,11.2-51.8,21.7-75.7,21.1-48,55-89.9,95.6-120.8l1.9-1.5,1.9-1.4,3.8-2.8c2.6-1.8,5.2-3.7,7.8-5.4,5.2-3.6,10.6-6.9,16-10.2,10.9-6.4,22-12.2,33.4-17.3,1.4-.6,2.9-1.3,4.3-1.9,1.4-.6,2.9-1.2,4.3-1.8,2.9-1.3,5.8-2.3,8.7-3.5,1.4-.6,2.9-1.1,4.4-1.6,1.5-.5,2.9-1.1,4.4-1.6,2.9-1,5.9-2.1,8.8-2.9,11.8-3.8,23.9-6.9,36.1-9.3,12.2-2.5,24.6-4.3,36.9-5.5,12.3-1.2,24.5-1.8,36.7-1.8,12.2,0,24.2.5,36.2,1.6,12,1.1,23.8,2.8,35.6,4.9,23.5,4.3,46.4,10.6,68.6,18.6,22.1,8,43.5,17.5,63.8,28.2,20.4,10.7,39.8,22.5,58.3,35,9.3,6.2,18.2,12.7,27.1,19.2,2.2,1.6,4.4,3.2,6.6,4.9,2.2,1.7,4.3,3.3,6.5,4.9,2.1,1.7,4.3,3.3,6.4,5,1.1.8,2.1,1.7,3.2,2.5,1,.8,2.1,1.7,3.1,2.5,51.4,41,93.4,82.6,134.9,113.5,5.2,3.9,10.4,7.6,15.6,11.1,2.6,1.8,5.2,3.5,7.8,5.1,2.6,1.7,5.2,3.3,7.8,4.8,10.5,6.3,21,11.7,31.8,16.1,5.4,2.2,10.8,4.2,16.3,5.9,5.5,1.7,11,3.1,16.6,4.2,11.2,2.2,22.8,3.3,34.6,2.9.1,3.2.2,6.5.2,9.7v9.7c-23.9,0-46.7-5.7-68.2-15.3-21.7-9.7-42.3-23.4-63.1-39.7-20.7-16.3-41.4-35.3-63.5-55.5-22-20.2-45.3-41.6-70.9-62.8-16.6-13.7-34-27.1-52.3-39.9-18.3-12.7-37.6-24.8-57.7-35.7-20.2-10.9-41.3-20.7-63.2-28.9-21.9-8.2-44.6-14.7-67.9-19.3-23.2-4.5-47-7-71-7.2-12,0-24.1.4-36.3,1.5-12.1,1.1-24.5,2.7-36.5,5.1-12.1,2.4-24,5.3-35.7,8.9-2.9,1-5.9,1.8-8.8,2.9-1.5.5-2.9,1-4.4,1.5-1.4.5-2.9,1.1-4.3,1.6l-2.2.8-2.1.9c-1.4.6-2.9,1.1-4.3,1.7-1.4.6-2.8,1.2-4.3,1.8-1.4.6-2.8,1.1-4.2,1.8-11.3,5-22.3,10.5-33.1,16.8-10.8,6.2-21.1,13.2-31.2,20.7-20,15.2-38.5,32.9-54.6,52.8-16.1,19.9-29.7,42-40.2,65.5-10.5,23.5-17.9,48.5-21.7,74.3-2,12.9-3,26.1-3.2,39.5,0,6.7.1,13.4.4,20.1.5,6.7,1,13.3,1.8,19.9,3.4,26.4,10.5,52.1,21.2,76.6,10.8,24.5,25.2,47.7,43,68.5,17.7,20.8,38.6,39,61.6,53.8,23,14.8,48.1,26.1,74.4,33.3,11.1,3.1,22.4,5.4,34,7.1,11.6,1.6,23.3,2.5,35.3,2.8,11.9.1,23.8-.4,35.5-1.7,11.7-1.4,23.3-3.4,34.6-6.2,2.8-.8,5.7-1.4,8.5-2.3l4.2-1.2,4.2-1.3,2.1-.6,2.1-.7,4.2-1.4,4.1-1.5,2.1-.7,2-.8,4.1-1.6,4-1.7c2.7-1.1,5.3-2.4,8-3.6,5.3-2.5,10.5-5.1,15.6-8,20.5-11.2,39.3-25.1,56-40.9,7.8-7.4,14.9-15.2,21.4-23.4,6.5-8.1,12.3-16.5,17.4-25.2,10.2-17.2,17.7-35.1,22.6-52.9,4.9-17.7,7.1-35.3,7-52.2,0-16.9-2.4-33-6.4-48h37.6c5.7,26.5,7,55.5,2.2,85.8-1.2,7.6-2.8,15.2-4.8,22.8-.5,1.9-1,3.9-1.6,5.7-.6,1.9-1.1,3.8-1.7,5.8-1.3,3.8-2.5,7.7-3.9,11.5-2.8,7.7-6,15.3-9.7,22.9-3.7,7.6-7.8,15.1-12.3,22.5-6.7,11-14.1,21.8-22.4,32-4.1,5.2-8.4,10.2-12.9,15.1l-3.4,3.6-1.7,1.8-1.8,1.8-3.5,3.6-3.6,3.5-1.8,1.8-1.8,1.7-3.7,3.4-3.8,3.3c-1.3,1.1-2.5,2.2-3.8,3.3l-3.9,3.3-4,3.2c-2.6,2.2-5.4,4.1-8,6.2-5.5,4-11,8-16.7,11.6-2.8,1.9-5.8,3.6-8.6,5.4-1.4.9-2.9,1.7-4.4,2.6-1.5.8-2.9,1.8-4.4,2.5-11.9,6.6-24.2,12.6-37,17.7-6.3,2.6-12.8,4.8-19.3,7.1l-4.9,1.5-2.5.8-2.5.7-5,1.4-5,1.3c-13.3,3.5-26.9,6-40.7,7.7-13.7,1.8-27.7,2.5-41.6,2.5-32.8,0-65.4-5-96.8-14.7-31.4-9.7-61.6-24.2-89.2-43-6.9-4.7-13.6-9.6-20.2-14.8-6.5-5.2-12.9-10.6-19.1-16.3-6.1-5.7-12.1-11.6-17.9-17.6-5.8-6.1-11.2-12.4-16.6-18.9-21.2-26-38.6-55-51.5-85.7-12.9-30.8-21.5-63.4-25.4-96.8-.9-8.3-1.7-16.8-2.1-25.2-.3-4.2-.3-8.4-.5-12.6v-6.3s0-3.1,0-3.1v-3.1c.1-8.4.7-16.7,1.3-25,.2-2.1.4-4.1.6-6.2.2-2.1.5-4.1.7-6.2.4-4.1,1.1-8.2,1.6-12.4,5-32.9,14.5-64.9,27.8-95.2,13.3-30.3,30.6-58.7,50.7-84.7,1.3-1.6,2.5-3.2,3.8-4.8,1.3-1.6,2.6-3.2,3.9-4.7,2.6-3.2,5.3-6.2,8-9.4,5.5-6.1,11-12.1,16.8-17.9,11.5-11.6,23.7-22.4,36.3-32.5,12.7-10.1,25.9-19.3,39.4-27.9,13.6-8.5,27.6-16.2,41.9-23.1,28.6-13.8,58.4-24.4,88.7-32,15.1-3.8,30.4-6.8,45.7-9.1,15.3-2.3,30.5-4,45.6-4.9,30.3-1.9,60.2-1.2,89.4,1.8,29.2,2.9,57.5,8,84.8,14.6,13.6,3.3,27,7,40.1,11,6.6,2,13,4.1,19.4,6.2,3.2,1.1,6.4,2.2,9.5,3.3,3.2,1.1,6.3,2.2,9.4,3.3,12.5,4.5,24.8,9.1,36.6,14,1.5.6,3,1.2,4.5,1.8,1.5.6,2.9,1.2,4.4,1.8,2.9,1.2,5.9,2.4,8.8,3.6,5.8,2.5,11.6,4.9,17.2,7.4,17.3,7.6,33.8,15.2,49.6,22.5,3.9,1.9,7.9,3.6,11.7,5.4,3.8,1.8,7.6,3.6,11.4,5.3,7.5,3.5,14.9,6.9,22.1,10.2,28.9,13,55.2,23.9,80,30.6,6.2,1.7,12.2,3.1,18.2,4.2,6,1.1,11.8,2,17.6,2.5,5.8.5,11.5.7,17.1.6,5.6-.1,11.1-.6,16.5-1.4,21.7-3.3,42-12.6,60.3-29.5,3.3,7,6.6,14,9.6,21.1-10.6,9.3-21.9,16.1-33.7,20.8-18.1,7.2-37.3,9.4-57.3,7.6-20.1-1.8-41.1-7.5-63.4-15.9-22.4-8.4-46-19.6-71.5-32.1-12.4-6.1-25.6-12.7-39.9-19.7-13.8-6.8-28.2-13.7-43.2-20.7-45.1-20.9-95-41.2-149.4-55.3-54.3-14.2-113.2-22.1-173.5-19.1-15.1.7-30.3,2.1-45.5,4.3-15.2,2.1-30.5,5-45.6,8.5-30.2,7.2-60,17.3-88.5,30.7-7.2,3.3-14.2,6.9-21.2,10.6-6.9,3.8-13.9,7.7-20.6,11.9-6.8,4.1-13.4,8.5-20.1,13-1.6,1.2-3.3,2.3-4.9,3.5l-2.5,1.7-2.4,1.8c-1.6,1.2-3.2,2.4-4.8,3.6-1.6,1.2-3.2,2.5-4.8,3.7-12.7,9.8-24.8,20.5-36.3,31.8-5.7,5.7-11.4,11.5-16.8,17.6-2.8,3-5.4,6.1-8,9.1-1.3,1.5-2.6,3.1-3.9,4.7-1.3,1.6-2.6,3.1-3.8,4.7-40.6,50.8-69,112.3-79.2,177.2l-.5,3-.4,3.1c-.3,2-.6,4.1-.8,6.1-.4,4.1-1,8.2-1.3,12.3-.4,4.1-.6,8.2-1,12.3-.1,2.1-.2,4.1-.3,6.2v3.1c-.2,1-.2,2.1-.2,3.1v6.2c-.1,0,0,6.2,0,6.2,0,1,0,2.1,0,3.1v3.1c.2,2.1.2,4.1.3,6.2.3,4.2.4,8.3.8,12.5.2,2.1.3,4.2.5,6.2l.6,6.2c3.7,33,11.9,65.2,24.5,95.7,12.6,30.4,29.6,59.1,50.4,84.9,20.8,25.7,45.3,48.4,72.5,67,27.2,18.6,56.9,33,87.8,42.6,30.9,9.7,63,14.6,95.4,14.7h5.1s5.1-.1,5.1-.1c3.4,0,6.8-.3,10.3-.4,1.7,0,3.4-.2,5.1-.3l5.1-.4,5.1-.5c1.7-.2,3.4-.3,5.1-.6,13.5-1.7,26.9-4.1,39.9-7.5l4.9-1.3,4.9-1.4c3.3-.9,6.4-2,9.7-3,6.4-2.1,12.7-4.3,19-6.9,6.3-2.4,12.4-5.2,18.4-8,3-1.5,6-2.9,9-4.5,1.5-.8,3-1.5,4.5-2.3l4.4-2.4c1.5-.8,2.9-1.6,4.4-2.5l4.3-2.5,4.3-2.6,2.1-1.3,2.1-1.4,4.2-2.7,4.1-2.8,2.1-1.4,2-1.5,4-2.9,4-3,2-1.5,1.9-1.6,3.9-3.1,3.8-3.2c2.6-2.1,5-4.4,7.5-6.5,1.2-1.1,2.4-2.3,3.6-3.4,1.2-1.1,2.4-2.2,3.6-3.4,9.4-9.1,18.3-18.8,26.3-28.9,4.1-5,7.9-10.2,11.6-15.4l2.7-4,1.4-2,1.3-2,2.6-4,2.5-4c12-19.5,20.7-39.8,26.6-59.9,5.9-20.1,8.9-40.1,9.5-59.3-.3,10.5-1.4,21.2-3.2,32l-.3,2-.4,2c-.3,1.4-.5,2.7-.8,4.1-.6,2.7-1.2,5.4-1.8,8.2-.7,2.7-1.4,5.5-2.2,8.2-.4,1.4-.8,2.7-1.2,4.1l-.6,2.1-.7,2c-3.6,11-7.9,22-13.3,32.8-5.4,10.8-11.5,21.6-18.7,32-14.4,20.9-31.6,40.5-51.5,57.7-19.8,17.3-42.1,32-65.9,43.9-23.9,11.7-49.4,20.4-75.8,25.6l-4.9,1-5,.8c-3.3.6-6.7,1-10,1.5-1.7.2-3.4.4-5,.6-1.7.2-3.3.5-5,.6-3.4.3-6.7.7-10.1.8-13.5.9-27.2,1.1-40.6.3-31.7-1.8-63-8.3-93-19.4-29.9-11.1-58.3-26.7-84-46.3-25.7-19.5-48.6-42.9-67.7-69.1-19.1-26.1-34.3-54.9-45.1-85.1-2.7-7.6-5.1-15.2-7.3-23-2.1-7.7-4-15.6-5.7-23.4-1.5-7.9-3-15.8-4-23.8-1-8-1.9-16.1-2.4-24.2-2-32.4.2-64.6,6.7-95.8,6.5-31.2,17.2-61.4,31.5-89.7,14.3-28.3,32.3-54.7,52.9-78.4,1.3-1.5,2.6-3,3.9-4.4,1.3-1.5,2.7-2.9,4-4.3,2.6-2.9,5.4-5.7,8.1-8.5,1.4-1.4,2.8-2.8,4.2-4.1l2.1-2.1,2.1-2c1.4-1.4,2.8-2.7,4.2-4.1,1.4-1.3,2.9-2.6,4.3-3.9l2.2-2,2.2-1.9c1.5-1.3,2.9-2.6,4.4-3.8,1.5-1.2,3-2.5,4.5-3.7,1.5-1.3,3-2.5,4.5-3.7,1.5-1.2,3-2.4,4.6-3.6,1.5-1.2,3.1-2.4,4.6-3.5,3.1-2.4,6.2-4.6,9.4-6.9,12.6-9,25.7-17.2,39.1-24.7,13.4-7.4,27.2-14.1,41.2-20,28.1-11.7,57.1-20.4,86.6-26.1,29.5-5.7,59.1-8.6,88.2-8.9,29.1-.3,57.8,2,85.7,6.3,27.9,4.3,55,10.7,81,18.5,26,7.8,50.9,17.1,74.7,27.1,11.9,5,23.5,10.3,34.8,15.6,11.4,5.3,22.3,10.8,33.2,16.3,16.5,8.4,32.2,16.8,47.3,25,15,8.2,29.4,16.1,43.2,23.5,3.4,1.9,6.9,3.7,10.3,5.4,3.4,1.8,6.7,3.5,10.1,5.2,3.4,1.7,6.7,3.4,9.9,5,3.3,1.6,6.5,3.2,9.8,4.7,6.4,3.1,12.7,6,19,8.6,6.2,2.7,12.4,5.1,18.5,7.3,6,2.2,12,4.2,18,5.9,5.9,1.7,11.7,3.1,17.5,4.3,5.8,1.1,11.5,2,17.2,2.5,5.6.5,11.3.7,16.8.5,22.2-.7,43.7-6.9,63.9-20.6,2.7,7,5.1,14.1,7.5,21.2-9.5,6-19.2,10.4-29.1,13.5-19.4,6-39.4,6.7-59.9,3.4-10.3-1.7-20.8-4.3-31.3-7.9-10.7-3.5-21.4-7.9-32.6-12.9-5.5-2.6-11.2-5.2-16.9-8.1-5.6-2.9-11.5-5.9-17.3-9-2.9-1.6-5.9-3.2-8.9-4.8-3-1.6-6-3.3-9-5-3-1.7-6.1-3.4-9.2-5.1-1.5-.9-3.1-1.8-4.6-2.7-1.6-.9-3.1-1.8-4.7-2.7-12.1-6.9-25.1-14.4-39-22.4-13.5-7.7-27.6-15.6-42.2-23.5-10.8-5.7-21.7-11.4-33-17-11.3-5.5-22.8-11-34.6-16.3-23.7-10.4-48.4-20.2-74.3-28.4-25.9-8.2-52.8-15-80.6-19.8-27.7-4.7-56.3-7.4-85.3-7.5-14.5,0-29.1.5-43.7,1.8-14.6,1.3-29.3,3.3-44,5.9-29.4,5.4-58.4,13.5-86.3,24.9-7,2.8-13.9,5.9-20.8,9.1-6.8,3.3-13.6,6.6-20.3,10.3-6.7,3.5-13.3,7.5-19.8,11.4-6.5,4.1-12.9,8.2-19.2,12.6-12.6,8.7-24.7,18.3-36.3,28.5-5.7,5.2-11.4,10.4-16.9,15.9-2.8,2.7-5.4,5.6-8.1,8.3-1.3,1.4-2.6,2.9-4,4.3-1.3,1.4-2.6,2.8-3.9,4.3-41.4,46.5-71.6,104-84.8,165.5-6.6,30.8-9.1,62.5-7.3,94.5,1.8,32,8.1,63.4,18.6,93.3,10.5,29.9,25.4,58.3,44,84.1,18.7,25.8,41.1,49,66.5,68.3,25.3,19.4,53.3,34.9,82.7,45.8,29.4,11,60.3,17.4,91.5,19.2,3.3.3,6.6.3,9.9.4,1.7,0,3.3,0,5,0,1.7,0,3.3,0,5,0h5c0,0,2.5-.1,2.5-.1h2.5c0-.1,5-.3,5-.3,1.7,0,3.3-.2,5-.3,6.6-.4,13.2-1.2,19.8-1.9l4.9-.7,2.5-.3,2.4-.4,4.9-.8c1.6-.3,3.2-.6,4.9-1,25.9-5.1,50.9-13.6,74.3-25.1,5.8-2.9,11.6-5.9,17.3-9.2,2.9-1.6,5.6-3.3,8.4-5,1.4-.8,2.7-1.8,4.1-2.6,1.4-.9,2.8-1.7,4.1-2.6,10.8-7.2,21.2-15,30.8-23.5,4.9-4.2,9.5-8.6,14.1-13,2.2-2.3,4.5-4.5,6.7-6.8l3.3-3.5,3.2-3.5c8.5-9.4,16.2-19.4,23.2-29.6Z"/>
    </g>
  </g>
</svg>