<?xml version="1.0" encoding="UTF-8"?>
<svg id="b" data-name="Layer 2" xmlns="http://www.w3.org/2000/svg" width="646.6" height="558.2" viewBox="0 0 646.6 558.2">
  <g id="c" data-name="OFFICIAL LOGOS">
    <g id="d" data-name="LOGO">
      <g>
        <path d="M398.1,160.3c.2,1.2.4,2.4.6,3.6,18.8,119.1,38.2,242.2,124.6,292.5,29.6,17.2,64.7,24.9,106.9,23.2,5.4-.2,10.9-.6,16.5-1.1l-.4-2.3c-48.8,4.4-88.4-2.7-121-21.7-85.4-49.7-104.7-172.3-123.4-291-1.3-8.2-2.6-16.4-3.9-24.7h0c0-3.2-.2-6.2-.4-9.2-.7-15.4-2.2-27.2-4.4-35.3-1.5-5.4-3.4-10.5-5.9-15.5,0-.1-.1-.3-.2-.4-1.7-3.5-3.7-6.8-6-10.1,2,6.3,3.6,12.9,5,19.8,4.4,23.2,8.3,47.9,12.1,71.9Z"/>
        <path d="M394.1,167.3c1.3,9.7,2.6,19.5,4,29.3,15.2,109.7,35.5,217.5,113.7,264.7,30.1,18.1,66.2,26.2,110.2,24.5,4.1-.2,8.3-.4,12.6-.7l-.4-2.3c-48.9,3.8-88.3-3.8-120.5-23.2-82.7-49.9-100.1-169.3-115.7-286-.3-2.1-.6-4.2-.9-6.4-3.4-25.2-6.8-51.2-10.9-75.7-1.3-8-3.1-15.7-5.4-23-5.8-8.4-13.3-16.1-22.5-23,8.7,16.1,14.1,34.8,16.1,55.9,2.3,24.6,4,50.6,5.5,75.9,3.5,55.7,7,112.2,18,162.3,12.6,57.5,35.1,106.4,78.7,135.6,7.1,4.8,14.7,8.9,22.7,12.5,5,2.2,10.1,4.2,15.5,6,23.9,7.9,51.3,11.2,83,9.9l-.2-2.3c-31.2,1.2-58.3-2-81.7-9.8-5.1-1.7-10.1-3.6-14.8-5.7-7.8-3.5-15.3-7.6-22.2-12.3-46.7-31.3-68.9-85.8-80.8-149.4-8.6-46.1-11.8-96.8-14.9-146.9-1.6-25.2-3.2-51.3-5.5-75.9-1-10.6-2.9-20.7-5.6-30.1,2.5,8.5,4.3,17.5,5.4,27,2.9,24.6,5.1,50.6,7.3,75.8,3.5,40.2,7,80.9,13.3,119.2,12.4,75.6,35.6,141.9,90.5,177.5,5.4,3.5,11.1,6.7,17,9.5,4.2,2,8.4,3.8,12.8,5.5,25,9.4,53.9,13.4,87.5,12.1,1.5,0,2.9-.1,4.4-.2l-.3-2.3c-35.1,1.8-65.1-2.1-90.8-11.9-4.2-1.6-8.2-3.3-12.1-5.2-5.7-2.8-11.2-5.8-16.5-9.2-59.1-38.2-81.1-113.1-92.6-196.6-4.4-32.1-7.3-65.4-10.1-98.5-2.2-25.2-4.4-51.3-7.3-75.9-1.4-12.2-4-23.6-7.6-34.2,3.4,9.7,5.9,20,7.4,31.1,3.5,24.5,6.3,50.6,9.1,75.7,2.6,24.1,5.3,48.3,8.6,72.1,12.9,94.2,35.1,181.4,102.2,223.3,30.5,19.1,67.8,27.5,113.7,25.8,2.8-.1,5.7-.3,8.6-.4l-.3-2.3c-49,3.2-88.2-4.9-120-24.8-71.9-44.9-91.7-143.1-104.2-245.9-1.9-15.9-3.7-31.9-5.5-47.9-2.8-25.2-5.6-51.2-9.1-75.8-1.6-10.9-4-21.1-7.2-30.7,3,8.6,5.3,17.8,6.9,27.6,4.1,24.5,7.5,50.5,10.9,75.6Z"/>
        <path d="M295.4,86.8c.5,1.7,1,3.4,1.4,5.1,3.2,12.7,4.9,25.8,5.7,38.8.2,3.2.4,6.6.5,9.9,0,0,0,.2,0,.3.1,3,.2,6.1.2,9.2,0,.2,0,.3,0,.5,0,.9,0,1.8,0,2.7,0,2.1,0,4.3,0,6.3.8-2.1,1.6-4.2,2.3-6.3,17.5-48,11.4-88-18.4-118.7-1.4-1.4-2.8-2.8-4.3-4.2,1.3,1.2,2.6,2.4,3.8,3.6,29.9,29.7,36.9,68.9,20.7,116.5-1.4,4-2.8,8-4.2,12.1-.1,3.8-.3,7.4-.6,10.9,2.7-7.5,5.3-15,7.8-22.4,4-11.8,6.6-23.1,7.8-33.9-1.1,9.9-3.3,20.2-6.7,31-2.9,9.3-6,18.7-9.2,28.2-.6,6.3-1.5,12-2.6,17.3,5.2-15.1,10.3-30.3,14.9-44.9,3.7-11.9,6.1-23.2,7-34.1-.8,9.9-2.8,20.3-5.9,31.1-7,24-15.1,49.3-23,73.7-3,9.3-6,18.5-9,27.8-29.4,92.1-54.6,183.9-26.8,248-2.3,2.1-4.6,4.1-7.1,6.1-29.9-64-1.9-157.7,30.4-251.6,3.2-9.2,6.4-18.4,9.6-27.6,1.1-3.1,2.2-6.3,3.3-9.4-1.9,3.7-4.3,7.3-7,10.7-1.1,1.4-2.3,2.8-3.5,4.1-1.6,1.8-3.3,3.5-5.2,5.2-1.4,1.2-2.8,2.4-4.2,3.6-1.5,1.2-3,2.3-4.5,3.4,0,0-.1,0-.2.1-1.1.8-2.2,1.6-3.3,2.4-1.5,1-3,2.1-4.6,3-1.1.7-2.2,1.4-3.4,2.1-1.4.9-2.9,1.7-4.4,2.5-1.1.6-2.3,1.2-3.4,1.8-1.4.7-2.9,1.5-4.4,2.2-1.1.5-2.3,1.1-3.4,1.6-1.4.6-2.8,1.3-4.3,1.9-1.1.5-2.3,1-3.5,1.4-1.4.6-2.8,1.1-4.3,1.7-1.3.5-2.6,1-3.9,1.4-.1,0-.3,0-.4.1-1.3.5-2.8,1-4.2,1.5-1.1.4-2.3.8-3.6,1.2-1.4.4-2.8.9-4.2,1.4-1.2.4-2.4.8-3.6,1.2-1.4.4-2.8.9-4.2,1.3-1.2.4-2.4.7-3.7,1.1-1.4.4-2.8.8-4.3,1.3-1.2.4-2.5.7-3.8,1.1-1.4.4-2.9.8-4.3,1.2-1.3.4-2.6.7-3.9,1.1-1.4.4-2.9.8-4.4,1.2-1.6.4-3.2.9-4.8,1.3-1.5.4-2.9.8-4.5,1.2-1.4.4-2.8.7-4.2,1.1-1.5.4-3,.8-4.5,1.2-1.4.4-2.8.7-4.3,1.1-1.5.4-3,.8-4.6,1.2-1.5.4-2.9.8-4.4,1.1-1.2.3-2.5.6-3.7.9-.3,0-.6.2-.9.2-1.6.4-3.1.8-4.7,1.2-1.6.4-3.2.8-4.8,1.3-1.7.4-3.3.9-5,1.4-1.7.5-3.4.9-5,1.4-2.1.6-4.2,1.2-6.3,1.8-1.8.5-3.5,1.1-5.2,1.6-2,.6-3.9,1.2-5.8,1.9-1.9.6-3.8,1.2-5.6,1.9-2.2.8-4.4,1.5-6.5,2.3-2.1.8-4.1,1.5-6.1,2.3-2.7,1-5.2,2.1-7.6,3.1-2.3,1-4.5,2-6.6,2.9-.2,0-.4.2-.5.3-3.6,1.7-7.2,3.6-10.7,5.6-3.9,2.3-7.8,4.7-11.4,7.4-7.2,5.1-13.9,10.9-20.1,17.4-5.6,5.9-10.4,12.1-14.6,18.7-2.3,3.6-4.3,7.3-6.2,11.1-2.6,5.3-4.8,10.9-6.5,16.6-.7,2.4-1.4,4.8-2,7.2-1.1,4.8-2,9.7-2.6,14.7-.3,2.1-.5,4.1-.6,6.3-.3,3.7-.4,7.5-.4,11.3s0,2.3,0,3.4c0,2,.1,4,.3,5.9.3,5.2.9,10.2,1.8,15.1.3,1.9.7,3.7,1.1,5.5,1.2,5.4,2.8,10.5,4.8,15.5.6,1.6,1.3,3.3,2.1,4.9,2.1,4.6,4.5,9,7.3,13.2.9,1.4,1.8,2.8,2.8,4.1,2.9,3.9,6,7.7,9.5,11.3,1.1,1.2,2.2,2.3,3.4,3.4,2.2,2.1,4.5,4.1,6.9,6.1,1.3,1.1,2.7,2.1,4,3.2,1.3,1,2.5,1.9,3.8,2.8,3.8,2.6,7.7,5,11.8,7.3,1.3.7,2.6,1.4,4,2.1,3.8,1.9,7.8,3.7,11.9,5.3,1.3.5,2.7,1,4,1.5,3.9,1.4,8,2.7,12.2,3.8,1.3.4,2.6.7,4,1,3.7.9,7.4,1.7,11.3,2.4,1.3.3,2.6.5,3.9.7,3.6.6,7.2,1.1,10.9,1.4,1.3.1,2.5.3,3.8.4,3.5.3,7,.6,10.6.7,1.2,0,2.4.1,3.6.1,2.9,0,5.8.1,8.7.1s1,0,1.5,0c1.2,0,2.4,0,3.6,0,3.3,0,6.6-.2,9.9-.4,1.1,0,2.3-.1,3.4-.2,3.3-.3,6.6-.6,9.9-1,1.1-.1,2.2-.3,3.3-.4,3.1-.4,6.2-.9,9.2-1.5,1.1-.2,2.1-.4,3.1-.6,3-.6,5.9-1.3,8.8-2,1-.3,2-.5,3-.8,2.9-.8,5.7-1.6,8.5-2.5.9-.3,1.9-.6,2.8-.9,2.8-.9,5.5-2,8.2-3,.9-.4,1.8-.7,2.7-1.1,2.7-1.1,5.3-2.3,7.9-3.5.9-.4,1.7-.9,2.6-1.3,1.8-.9,3.6-1.9,5.3-2.8.8-.5,1.7-.9,2.6-1.5.8-.5,1.6-1,2.4-1.5,2.3-1.4,4.7-3,7.2-4.8.8-.5,1.6-1.1,2.4-1.7,2.3-1.6,4.6-3.3,7.1-5.2.8-.6,1.5-1.2,2.3-1.8,2.3-1.7,4.6-3.6,7-5.5.8-.6,1.5-1.2,2.3-1.9,2.3-1.8,4.6-3.8,7-5.8.8-.6,1.5-1.3,2.3-1.9,2.3-1.9,4.6-3.9,7-6,.8-.7,1.6-1.3,2.3-2,2.4-2.1,4.8-4.2,7.3-6.4.8-.7,1.6-1.4,2.4-2.1-5.4-12.8-9-26.8-11.2-41.6-6.6-45.3.5-98.9,11.5-154.3,4.5-22.8,9.7-45.9,14.8-68.8,5.6-24.8,11.3-50.5,16-74.8,1.5-8,2.5-15.7,2.8-23.1-.3,6.5-1,13.2-2.1,20.1-4.1,24.4-9.2,50.1-14.2,75-6.3,31.6-12.7,63.4-17.4,94.4-5.8,38.6-9,75.8-6.2,109.4,3.4,40.2,15.4,75.3,41.8,101.2,12.4,12.2,27.5,21.9,45.4,29.3,17.8,7.3,38.5,12.3,62.2,15.1,1.4.2,2.9.3,4.4.5l.4-2.3c-20.1-2.1-38.1-5.7-54-11.1-22.7-7.6-41.1-18.5-55.8-32.9-29-28.4-40.4-68.1-42-113.8-.8-22.9.8-47.3,3.9-72.5,4.6-37.9,12.6-77.7,20.4-117,5-24.9,10.1-50.7,14.2-75.1,1.9-11.4,2.6-22.2,2.2-32.4.4,9.3-.1,19.1-1.6,29.4-3.5,24.4-8,50.2-12.4,75.2-20.8,118.4-42.3,240.8,25.4,304.8,17.2,16.3,39.1,28,66.3,35.4,11.7,3.2,24.4,5.6,38.1,7.2,2.8.3,5.7.6,8.6.9l.3-2.3c-13.8-1.2-26.5-3.2-38.3-6-30.2-7-54.1-19.1-72.5-36.5-66.9-63.2-45.5-185.2-24.8-303.1,4.4-25,8.9-50.8,12.4-75.3,1.6-10.8,2.1-21.2,1.6-31,.5,8.9.2,18.2-1,28-2.9,24.5-6.8,50.4-10.6,75.4-18,118.7-36.6,241.4,32.6,304.6,19.5,17.8,44.6,29.9,76.1,36.6,8,1.7,16.4,3.1,25.2,4.1,4.1.5,8.3.9,12.6,1.2l.3-2.3c-11.2-.9-21.7-2.2-31.6-4.1-33.6-6.3-59.9-18.6-80.1-37-68.4-62.4-49.8-184.6-31.9-302.8,3.8-25,7.7-50.9,10.6-75.4,1.3-10.9,1.6-21.2.8-31,.7,8.9.6,18.2-.3,27.9-2.3,24.5-5.6,50.4-8.8,75.5-15.2,118.9-30.8,241.9,39.8,304.2,20.5,18.1,46.8,30,79.8,36.2,6,1.1,12.1,2.1,18.5,2.8,5.3.6,10.8,1.1,16.5,1.5l.2-2.3c-10.7-.7-20.8-1.8-30.4-3.5-34.3-5.8-61.4-17.8-82.3-36.2-69.8-61.5-54.2-184-39.1-302.5,3.2-25.1,6.5-51,8.8-75.6,1.2-12.2,1.1-23.7-.3-34.5,1.3,9.9,1.6,20.4.8,31.5-1.8,24.6-4.4,50.5-7,75.6-12.3,119.1-25.1,242.3,47,303.7,20.7,17.6,47,29.2,79.8,35,5.1.9,10.3,1.7,15.7,2.3,6.5.8,13.3,1.3,20.3,1.7l.2-2.3c-11.4-.6-22.2-1.7-32.4-3.4-33.5-5.5-60.3-17-81.2-34.8-71.2-60.6-58.5-183.3-46.2-302,2.6-25.1,5.3-51.1,7.1-75.7,2.9-40.1-7.8-72.7-31.7-97.3-14.2-5.9-30.4-11-48.6-15.3C245.6,3.3,218.9,0,193.2,0s-20.9.5-31.6,1.5c-12.6,1.2-25.4,3.1-38.3,5.6-23.8,4.8-43.8,10.9-59.9,18.4-29.8,14.5-44.7,32.4-44.7,53.5s4.7,25.8,14.2,35.2c9.5,9.3,21.2,14,35.2,14,21.4,0,36.2-9.8,44.4-29.3l15.5-36.1c6.6-15.4,16.6-27.4,29.8-36.1,6.8-4.5,14.1-7.8,21.9-10,7.4-2.1,15.2-3.1,23.5-3.1,14.1,0,27.6,3.1,40.7,9.3,13,6.2,23.7,14.4,32,24.8,9.2,11.5,15.4,25.1,19.5,39.2ZM113.6,388.3c7.8-15.1,16.7-30.5,26.4-46.1h0c4.3-5,8.9-9.6,13.7-13.9-18.5,30.1-34.6,59.6-45.7,87.8.9-9.6,2.8-18.9,5.6-27.7ZM107.3,430.1c0-1.3,0-2.6,0-3.8,11.8-33,31.2-68.3,53.6-104.2,2.3-1.8,4.6-3.6,7-5.3.4-.3.9-.6,1.3-.9-28,46.5-51.3,92-60.7,133.2-.9-6-1.3-12.3-1.3-18.9ZM110.1,457.1c8.3-44.3,34.1-94.2,65-145.2,2.1-1.3,4.3-2.8,6.8-4.3-35,60.1-63.2,118.7-65.4,168.7-2.8-6.1-4.9-12.5-6.4-19.3ZM119.5,482.4c.2-52.1,30.4-114.2,67.8-177.9,1.9-1.1,3.9-2.3,6-3.6-39.9,71.2-71.4,140.5-63.6,196.3-3.9-4.6-7.3-9.6-10.1-14.8ZM133.4,501.4c-10.2-57,23.1-129.3,64.9-203.5,1.8-1,3.6-2.1,5.5-3.1-42.9,80-76.4,157.8-58.4,216.9-4.2-2.9-8.2-6.4-12-10.3ZM149.5,514.3c-20.3-59.7,14.8-139.9,59.2-222.2,1.9-1.1,3.9-2.2,6-3.3-44.3,86.3-78.9,170.3-52.7,231.3-4.4-1.5-8.5-3.4-12.5-5.8ZM165.8,521.3c-27.8-61.2,8.2-147.1,53.6-235.1,1.6-.9,3.2-1.7,4.8-2.6-44.1,90.1-78.6,178.1-47.3,239.9-3.8-.5-7.5-1.2-11-2.2ZM187.2,524.2c-2.3,0-4.6,0-6.9-.3-32.3-61.9,3.5-151.3,48.4-242.7.6-.3,1.3-.7,1.9-1,.9-.4,1.7-.9,2.6-1.4-43,92.5-76.9,183-42.7,245.3-1.1,0-2.2,0-3.3,0ZM193.8,524c-34.8-62.3.2-154,43.8-247.5,1.4-.8,2.9-1.6,4.3-2.4-41.3,94-74.3,186.2-38.6,248.8-3.1.5-6.3.9-9.5,1.1ZM206.3,522.2c-35.9-62.6-1.9-155.8,40-250.7,1.4-.8,2.8-1.6,4.2-2.4-39.4,94.8-71.1,188-35.3,250.8-2.9.9-5.9,1.7-8.9,2.3ZM218.1,519c-35.7-62.9-3-157,36.8-252.5,1.3-.8,2.7-1.6,4-2.5-37.1,94.9-67.4,188.5-32.5,251.7-2.8,1.3-5.5,2.3-8.3,3.3ZM229,514.5c-34.5-63.2-3.3-157.7,34.2-253.2,1.6-1,3.1-2,4.6-3-34.7,94.5-63.5,188.1-30.6,251.7-2.7,1.6-5.5,3.1-8.2,4.5ZM244.5,505.3c-1.6,1.1-3.1,2.2-4.7,3.2-32.4-63.7-2.6-158.1,32.4-253,1.2-.8,2.4-1.6,3.7-2.5-32.1,93.6-59.2,186.5-28.6,250.4-.9.7-1.8,1.3-2.7,2ZM259.1,493.2c-26.9-64.3-.8-156.6,28.7-248.9,2.6-8,5.2-16.1,7.8-24.1,7.9-24.5,16.1-49.8,23.1-73.8,2.7-9.2,4.5-18.1,5.5-26.7-.9,7.6-2.4,15.5-4.5,23.7-6.4,24.1-14,49.5-21.3,74-2.4,8.1-4.8,16.2-7.2,24.3-26.5,90-49.8,179.9-25.3,244.2-2.1,2.5-4.4,4.9-6.8,7.2ZM268.1,483.3c-23.4-64.4.6-154.8,27.2-244.7,2-6.8,4.1-13.7,6.1-20.5,7.3-24.6,14.9-50,21.3-74.1,3-11.2,4.7-22,5.3-32.2-.5,9.3-1.9,19.1-4.4,29.2-5.8,24.2-12.8,49.6-19.5,74.3-1.9,6.9-3.8,13.8-5.7,20.8-23.6,87-44.7,174.4-24,238.5-2,3-4.1,6-6.4,8.7ZM276.6,471.2c-19.3-64.2,2.3-151.7,25.9-238.5,1.5-5.6,3.1-11.3,4.6-16.9,6.7-24.7,13.7-50.2,19.5-74.3,2.9-12,4.4-23.5,4.6-34.3-.1,9.9-1.3,20.4-3.7,31.3-5.2,24.2-11.6,49.8-17.7,74.6-1.8,7.4-3.7,14.9-5.5,22.3-20,81.3-37.6,162.8-21.7,224.9-1.8,3.8-3.8,7.4-6,10.9ZM332,136c-4.7,24.3-10.4,50-16,74.8-4,17.9-8,35.8-11.8,53.6-13.2,63.4-22.6,125.3-13.6,176.3-1.7,5-3.6,9.7-5.6,14.1-.1.3-.3.6-.4.9-13.3-57.9,1.4-132.3,19.6-207.4,2.8-11.6,5.7-23.3,8.6-34.9,6.2-24.8,12.5-50.3,17.8-74.6,10.6-49.2-1.2-88.5-35.1-116.8-1.6-1.3-3.2-2.6-4.9-3.8,1.4,1.1,2.9,2.2,4.3,3.3,33.9,27.3,46.4,65.8,37,114.5Z"/>
        <path d="M512.2,499c-6.1-1.7-12-3.8-17.6-6.1-10.1-4.1-19.4-9.2-28.1-15.2-35.5-24.6-56.1-62.9-68.4-108.4-15.2-56.1-17.8-123.2-20.3-189-1-25.2-2-51.3-3.7-76-1.6-22.6-7.1-42.5-16.4-59.6-4.5-3.4-9.4-6.6-14.7-9.6-6.3-3.5-13-6.7-20.3-9.7,23.1,23.7,33.8,55.2,32,94-1.2,24.6-3.3,50.6-5.3,75.8-9.5,119.3-19.3,242.7,54.2,303.2,20.3,16.7,45.6,27.7,76.7,33.4,12.4,2.2,25.7,3.6,39.9,4.2v-2.3c-13-.5-25.4-1.7-36.9-3.7-31.6-5.4-57.1-16.3-77.4-33-72.6-59.7-62.8-182.6-53.4-301.5,2-25.2,4.1-51.2,5.3-75.8.5-11,0-21.4-1.4-31.3,1.4,8.9,1.9,18.3,1.7,28.2-.6,24.6-2,50.6-3.4,75.8-6.7,119.5-13.6,243,61.3,302.5,19.6,15.6,43.5,26,72.5,31.5,12.5,2.4,26.1,3.9,40.5,4.4,1.5,0,2.9.1,4.4.1v-2.3c-15.2-.4-29.4-1.8-42.5-4.2-19.9-3.6-37.4-9.6-52.7-17.9-7.2-3.9-13.8-8.3-20.1-13.3-1.4-1.1-2.8-2.3-4.1-3.4-69.6-60.1-62.9-180.7-56.3-297.4,1.4-25.2,2.9-51.3,3.4-75.9.3-12.2-.6-23.7-2.8-34.5,2,9.9,3,20.4,3,31.5,0,24.6-.9,50.7-1.7,75.9-3.4,105-6.9,213.1,44,277.6,7.1,8.9,15.2,17,24.5,24.2,8.8,6.8,18.4,12.5,28.9,17.2,11.6,5.3,24.4,9.3,38.3,12.2,13.1,2.7,27.2,4.3,42.5,4.9,2.8.1,5.7.2,8.6.2v-2.3c-17.8-.2-34.1-1.8-49-4.8-12.6-2.5-24.2-6-34.9-10.5-11.8-4.9-22.4-11.1-32.1-18.5-11-8.5-20.3-18.3-28.2-29.3-46-64.4-42.7-169.1-39.4-270.8.8-25.2,1.7-51.3,1.7-75.9,0-10.2-.8-20-2.5-29.2,1.6,8.3,2.4,17,2.7,26.1.6,24.6.4,50.7.1,75.9-.8,93.4-1.6,189.4,35.1,254.3,10.3,18.2,23.5,34,40.5,46.6,10.1,7.5,21.3,13.7,33.6,18.7,8.6,3.4,17.7,6.3,27.3,8.4,13.9,3.2,29,5.1,45.4,5.7,4.1.2,8.4.2,12.7.2v-2.3c-20.7,0-39.4-1.9-56.4-5.6-9-2-17.5-4.5-25.4-7.6-12.9-4.9-24.5-11.3-35-19.1-18.6-13.8-32.6-31.5-43.2-52.1-33-64.3-32.2-156.9-31.5-247.2.2-25.2.4-51.3-.1-76-.3-12.2-1.8-23.7-4.4-34.4,2.4,9.8,4,20.3,4.5,31.4,1.2,24.6,1.6,50.7,1.9,75.9,1.2,82.1,2.5,166.1,28.7,229,12,28.8,29.2,53.2,54,71,9.9,7.1,20.7,13,32.5,17.7,6.8,2.7,14,5,21.5,6.9,15,3.8,31.3,6,49.1,6.7,5.4.2,10.9.3,16.6.2v-2.3c-23.9.3-45.3-1.9-64.3-6.7-7.2-1.8-14-4-20.6-6.5-11.9-4.6-22.8-10.5-32.7-17.6-26.6-19.1-44.4-46-56.3-78-23-61.6-24.2-141.9-25.4-220.4-.4-25.2-.8-51.3-1.9-76-.5-10.1-1.7-19.6-3.8-28.6,1.9,8.1,3.2,16.6,3.8,25.6,1.7,24.6,2.8,50.7,3.7,75.9,2.7,70.1,5.5,141.6,23.5,199.9,12.7,41.3,33,76,66.3,99.1,8.7,6.1,18.2,11.2,28.3,15.4,5.8,2.4,11.9,4.6,18.3,6.4,16.2,4.6,33.9,7.3,53.5,8.1,6.6.3,13.4.3,20.4.1l-.2-2.3c-27.3.7-51.3-1.9-72.5-8Z"/>
      </g>
    </g>
  </g>
</svg>