<?xml version="1.0" encoding="UTF-8"?>
<svg id="b" data-name="Layer 2" xmlns="http://www.w3.org/2000/svg" width="1333.4" height="342" viewBox="0 0 1333.4 342">
  <g id="c" data-name="OFFICIAL LOGOS">
    <g id="d" data-name="TEXT LOGO">
      <g>
        <path d="M190.2,188.5v19.3h-74.8v-19.3h17.3l1.4-1.4-13-30.6H51.7l-11.8,30.6,1.4,1.4h17.3v19.3H0v-19.3h15.9l1.4-1.4L86.3,20.2h15.3l71.9,166.9,1.4,1.4h15.3ZM113.2,136.8l-27.4-64.7h-1.4l-25.1,64.7h54Z"/>
        <path d="M197.7,189.4h13l1.4-1.4v-81.1l-1.4-1.7h-13v-18.5h13l1.4-1.4v-9.2C212.1,22.8,231.7.9,268.7.9s19.1,2,26.8,4.9v39.5h-2.3l-15.6-17c-4.6-5.2-9.5-9.8-17.6-9.8s-14.7,8.7-14.7,27.4v39.3l1.4,1.4h24.3v18.5h-24.3l-1.4,1.7v81.1l1.4,1.4h18.8v18.5h-67.8v-18.5ZM299.6,172.9v-66.4l-1.4-1.4h-14.7v-3.8l45.6-49.1h3.8v34.4h38.4v18.5h-38.4v54c0,23.1,4.3,31.2,15.9,31.2s14.7-2.9,21.4-6.3l5.5,10.1c-11,9.5-26.8,16.7-43.3,16.7s-32.6-10.1-32.6-37.8Z"/>
        <path d="M475.9,183.9l5.5,10.1c-13,10.1-28.3,16.7-46.5,16.7-34.4,0-60.9-24.2-60.9-62.1s25.4-66.4,60.9-66.4,47.6,19.9,47.6,48.5-.3,9.2-1.4,15.6h-71.6c2,27.7,15.3,44.7,39,44.7s17.3-2.3,27.4-7.2ZM409.5,131.3h41c-.6-24.2-7.8-32.3-19.6-32.3s-20.2,11.3-21.4,32.3Z"/>
        <path d="M535.3,116.6v71.3l1.4,1.4h17.3v18.5h-66.4v-18.5h13l1.4-1.4v-69.9l-18.5-11.3v-3.8l43.3-22.2,3.8,2,3.8,20.8c14.1-13,27.1-21.4,38.1-21.4s5.5.3,8.4,1.4v37.2c-11.3-3.2-23.1-4.9-36.1-4.9s-6.3.3-9.5.6Z"/>
        <path d="M639.3,197.2v-56.6h4.9l16.7,32.3c13.3,14.4,25.4,19.6,39.5,19.6s29.2-8.4,29.2-24.2-8.1-22.8-41.9-39.5c-30.9-15.3-47.9-32.3-47.9-59.2s26.6-53.7,62.6-53.7,33.2,4.6,46.8,12.1v54.3h-4.3l-21.7-35.5c-6.3-6.9-14.1-11.5-28.3-11.5s-24.8,8.9-24.8,23.7,8.1,21.7,38.7,37.8c39,20.5,51.1,35.8,51.1,59.2s-22.5,56.3-65,56.3-39.3-5.8-55.7-15Z"/>
        <path d="M770.8,149.5c0-37.8,25.1-67.3,65.5-67.3s22.8,2.3,33.8,6.4v46.5h-3.8l-21.9-29.4c-5.2-4.3-9.8-6.6-15.9-6.6-14.7,0-22.5,13.9-22.5,39.5s18.8,52.2,38.7,52.2,16.5-2,25.1-6.9l5.5,10.1c-11,9.8-26.3,16.7-45.3,16.7-36.1,0-59.2-24.2-59.2-61.2Z"/>
        <path d="M1019,189.4v18.5h-62.1v-18.5h13l1.4-1.4v-51.4c0-23.1-6.6-29.4-23.1-29.4s-13.3,1.2-22.2,3.5v77.4l1.4,1.4h13v18.5h-62.1v-18.5h13l1.4-1.4V38.1l-18.5-11.5v-3.5L922,0l4,2v97c16.5-10.7,28.3-16.7,43.6-16.7s34.9,10.1,34.9,33.8v71.9l1.4,1.4h13Z"/>
        <path d="M1019.6,149.5c0-38.1,25.4-67.3,62.9-67.3s59.5,23.4,59.5,62.6-26.3,65.8-62.9,65.8-59.5-24.2-59.5-61.2ZM1106.8,156.2c0-32.9-12.7-56-30-56s-21.9,13.9-21.9,37.5,12.7,56,30,56,21.9-13.9,21.9-37.5Z"/>
        <path d="M1147.8,149.5c0-38.1,25.4-67.3,62.9-67.3s59.5,23.4,59.5,62.6-26.3,65.8-62.9,65.8-59.5-24.2-59.5-61.2ZM1235,156.2c0-32.9-12.7-56-30-56s-21.9,13.9-21.9,37.5,12.7,56,30,56,21.9-13.9,21.9-37.5Z"/>
        <path d="M1271.3,189.4h13l1.4-1.4V38.1l-18.5-11.5v-3.5l47.6-23.1,4,2v185.9l1.4,1.4h13v18.5h-62.1v-18.5Z"/>
      </g>
      <g>
        <path d="M595.8,315v4.1h-18.4v-4.1h4.4l.5-.5-5.6-16.3h-20.1l-5.9,16.3.5.5h6.8v4.1h-19.1v-4.1h6.3l.5-.5,20.8-55.5h3.5l20.1,55.5.5.5h5.3ZM575.2,294l-8.4-24.4h-.2l-8.7,24.4h17.3Z"/>
        <path d="M636.7,287.8l-8.7-.8c1.4,2.3,2,5,2,7.9,0,9.7-8.2,14.9-16,14.9s-4.3-.4-6.1-1.1c-1,1.4-1.9,3-1.9,4.7,0,2.6,1.7,3.8,9.9,3.8h2.4c10.7,0,15.1,2.7,15.1,8.3,0,10.6-11.7,14.9-22,14.9s-13.6-2.5-13.6-7.9,3.5-6.7,6.4-9.4c-2.8-.8-4.5-2.4-4.5-5.6s3.6-7.1,6.7-9.5c-4.3-2.3-6.6-6.6-6.6-11.7,0-10.4,7.9-15.7,15.8-15.7s8,1.5,10.5,3.9l10.6-4.4v7.7ZM606.2,323.3c-1.2,1.9-2.1,4.3-2.1,6.8,0,4.9,3.3,6.9,8.4,6.9s15-3.2,15-8.8-2.7-4.5-8.4-4.5h-6.8c-2.3,0-4.3,0-6.1-.4ZM623.2,296.4c0-8.2-3.6-12.9-8.4-12.9s-8.2,3.4-8.2,10.6,3.1,12.4,8.3,12.4,8.3-3,8.3-10.2Z"/>
        <path d="M670,298.6h-25.3c0,12,6.3,16.4,14.6,16.4s6.9-.9,9.5-2.3l1,1.9c-3.5,3.3-8.9,5.3-14.2,5.3-11.2,0-17.9-8.4-17.9-18.9s9.7-20.6,18.1-20.6,14.5,4.5,14.5,15.1,0,2-.2,3.1ZM644.9,295.3h18.2c-.2-7.6-3-11.1-8-11.1s-9.3,2.8-10.2,11.1Z"/>
        <path d="M716.8,315v4.1h-18.8v-4.1h6l.5-.5v-17.4c0-7.9-1.7-10.6-8.4-10.6s-6.7.6-10.2,1.3v26.8l.5.5h6v4.1h-18.8v-4.1h5.5l.5-.5v-25l-6.1-2.9v-.5l11.1-5.7.6.3.7,5.2c5.4-3.5,9.7-5.4,13.3-5.4,8.3,0,11.9,3.9,11.9,10.7v23.2l.5.5h5.5Z"/>
        <path d="M718.3,301.4c0-13.4,9.1-20.8,19.5-20.8s7.2.6,10.1,2v10.8h-.5l-5.4-6.9c-1.7-1.4-3.3-2.2-6.3-2.2-6.6,0-10.3,5.7-10.3,14.1s5.8,16.6,13.6,16.6,6.9-.9,9.5-2.3l1,1.9c-3.5,3.3-8.5,5.3-13.8,5.3-11.7,0-17.3-8.6-17.3-18.6Z"/>
        <path d="M794,282v.3l-5,4.3-14.8,35-8.8,20.5-7.9-3.4,13.3-16.2-15.4-35.8-5.2-4.1v-.5h18.4v.3l-6,4.4,11.3,27.2,10.6-27.3-6.5-4.1v-.5h15.9Z"/>
      </g>
    </g>
  </g>
</svg>