<?xml version="1.0" encoding="utf-8"?>
<!-- Generator: Adobe Illustrator 18.0.0, SVG Export Plug-In . SVG Version: 6.00 Build 0)  -->
<!DOCTYPE svg PUBLIC "-//W3C//DTD SVG 1.1//EN" "http://www.w3.org/Graphics/SVG/1.1/DTD/svg11.dtd">
<svg version="1.1" id="Layer_1" xmlns="http://www.w3.org/2000/svg" xmlns:xlink="http://www.w3.org/1999/xlink" x="0px" y="0px"
	 viewBox="0 0 1400 1400" enable-background="new 0 0 1400 1400" xml:space="preserve">
<g>
	<path fill="#36C5F3" d="M200.3,1184.3c-2.6-8.8-8.6-15.7-17.2-19.2c-10.5-4.3-26.7-2.4-34.6,6.5c-11.8,13.4-10.8,35.3,2.4,47.8
		c12.9,12.2,34.3,8.9,45-4.5C202.8,1206.2,203.3,1194.6,200.3,1184.3z"/>
	<path fill="#50DEFF" d="M177.7,1171.6c-3.7-1.6-7.9-1.8-11.7,0c-7.6,3.6-10.4,12.9-7.3,20.5c4.5,11.3,18,12.5,26.4,4.8
		c4.6-4.2,4.4-11,2-16.3C185.2,1176.5,181.7,1173.3,177.7,1171.6z"/>
	<path fill="#FFFFFF" d="M184.3,1179.3c-0.7-4.5-5-6.7-9.2-6.1c-4,0.5-7.8,3.9-7.7,8.1c0.1,4.4,4.8,7.1,8.8,6.9
		c1-0.1,1.9-0.3,2.8-0.7C182.6,1186.5,184.9,1183.3,184.3,1179.3z"/>
	<path fill="#FFFFFF" d="M193.4,1189.3c-0.8-4.4-7.5-2.6-6.7,1.9c1.3,7.4-2.2,14.7-8.5,18.7c-3.8,2.4-0.3,8.5,3.5,6
		C190.9,1210.2,195.3,1199.9,193.4,1189.3z"/>
</g>
<g>
	<path fill="#36C5F3" d="M1260.3,1031.5c-2.6-8.8-8.6-15.7-17.2-19.2c-10.5-4.3-26.7-2.4-34.6,6.5c-11.8,13.4-10.8,35.3,2.4,47.8
		c12.9,12.2,34.3,8.9,45-4.5C1262.8,1053.3,1263.3,1041.7,1260.3,1031.5z"/>
	<path fill="#50DEFF" d="M1237.7,1018.7c-3.7-1.6-7.9-1.8-11.7,0c-7.6,3.6-10.4,12.9-7.3,20.5c4.5,11.3,18,12.5,26.4,4.8
		c4.6-4.2,4.4-11,2-16.3C1245.2,1023.7,1241.7,1020.4,1237.7,1018.7z"/>
	<path fill="#FFFFFF" d="M1244.3,1026.4c-0.7-4.5-5-6.7-9.2-6.1c-4,0.5-7.8,3.9-7.7,8.1c0.1,4.4,4.8,7.1,8.8,6.9
		c1-0.1,1.9-0.3,2.8-0.7C1242.6,1033.7,1244.9,1030.5,1244.3,1026.4z"/>
	<path fill="#FFFFFF" d="M1253.5,1036.5c-0.8-4.4-7.5-2.6-6.7,1.9c1.3,7.4-2.2,14.7-8.5,18.7c-3.8,2.4-0.3,8.5,3.5,6
		C1250.9,1057.3,1255.3,1047,1253.5,1036.5z"/>
</g>
<g>
	<path fill="#36C5F3" d="M1271.9,457.9c-1.4-4.7-4.6-8.4-9.1-10.2c-5.6-2.3-14.2-1.3-18.4,3.5c-6.3,7.1-5.7,18.8,1.3,25.4
		c6.9,6.5,18.2,4.7,23.9-2.4C1273.3,469.6,1273.5,463.4,1271.9,457.9z"/>
	<path fill="#50DEFF" d="M1259.9,451.1c-2-0.8-4.2-1-6.2,0c-4,1.9-5.5,6.9-3.9,10.9c2.4,6,9.6,6.6,14,2.5c2.4-2.2,2.4-5.9,1.1-8.7
		C1263.9,453.8,1262.1,452.1,1259.9,451.1z"/>
	<path fill="#FFFFFF" d="M1263.4,455.3c-0.4-2.4-2.7-3.6-4.9-3.3c-2.1,0.3-4.1,2.1-4.1,4.3c0.1,2.3,2.5,3.8,4.7,3.6
		c0.5,0,1-0.2,1.5-0.4C1262.5,459.1,1263.8,457.4,1263.4,455.3z"/>
	<path fill="#FFFFFF" d="M1268.3,460.6c-0.4-2.4-4-1.4-3.6,1c0.7,3.9-1.2,7.8-4.5,9.9c-2,1.3-0.2,4.5,1.9,3.2
		C1266.9,471.7,1269.3,466.2,1268.3,460.6z"/>
</g>
<g>
	<path fill="#36C5F3" d="M160.7,737.9c-2.6-8.8-8.6-15.7-17.2-19.2c-10.5-4.3-26.7-2.4-34.6,6.5c-11.8,13.4-10.8,35.3,2.4,47.8
		c12.9,12.2,34.3,8.9,45-4.5C163.2,759.8,163.8,748.1,160.7,737.9z"/>
	<path fill="#50DEFF" d="M138.2,725.1c-3.7-1.6-7.9-1.8-11.7,0c-7.6,3.6-10.4,12.9-7.3,20.5c4.5,11.3,18,12.5,26.4,4.8
		c4.6-4.2,4.4-11,2-16.3C145.6,730.1,142.2,726.8,138.2,725.1z"/>
	<path fill="#FFFFFF" d="M144.8,732.8c-0.7-4.5-5-6.7-9.2-6.1c-4,0.5-7.8,3.9-7.7,8.1c0.1,4.4,4.8,7.1,8.8,6.9
		c1-0.1,1.9-0.3,2.8-0.7C143.1,740.1,145.4,736.9,144.8,732.8z"/>
	<path fill="#FFFFFF" d="M153.9,742.9c-0.8-4.4-7.5-2.6-6.7,1.9c1.3,7.4-2.2,14.7-8.5,18.7c-3.8,2.4-0.3,8.5,3.5,6
		C151.4,763.7,155.8,753.4,153.9,742.9z"/>
</g>
<g>
	<path fill="#36C5F3" d="M479.1,143.2c-2.6-8.8-8.6-15.7-17.2-19.2c-10.5-4.3-26.7-2.4-34.6,6.5c-11.8,13.4-10.8,35.3,2.4,47.8
		c12.9,12.2,34.3,8.9,45-4.5C481.6,165.1,482.2,153.4,479.1,143.2z"/>
	<path fill="#50DEFF" d="M456.6,130.4c-3.7-1.6-7.9-1.8-11.7,0c-7.6,3.6-10.4,12.9-7.3,20.5c4.5,11.3,18,12.5,26.4,4.8
		c4.6-4.2,4.4-11,2-16.3C464.1,135.4,460.6,132.1,456.6,130.4z"/>
	<path fill="#FFFFFF" d="M463.2,138.1c-0.7-4.5-5-6.7-9.2-6.1c-4,0.5-7.8,3.9-7.7,8.1c0.1,4.4,4.8,7.1,8.8,6.9
		c1-0.1,1.9-0.3,2.8-0.7C461.5,145.4,463.8,142.2,463.2,138.1z"/>
	<path fill="#FFFFFF" d="M472.3,148.2c-0.8-4.4-7.5-2.6-6.7,1.9c1.3,7.4-2.2,14.7-8.5,18.7c-3.8,2.4-0.3,8.5,3.5,6
		C469.8,169,474.2,158.7,472.3,148.2z"/>
</g>
<g>
	<path fill="#36C5F3" d="M188.8,1070.5c-15.5-15.1-40.7,1.8-33.6,22c4.3,12.1,18.8,13.4,28.9,8.1
		C195.5,1094.6,197.8,1079.3,188.8,1070.5z"/>
	<path fill="#50DEFF" d="M184.4,1072.5c-4.9-4-14-3.5-16.6,2.9c-1.1,2.7-0.9,6.1,0,8.8c2.1,6.2,11.7,8.5,16.7,4.3
		C189.3,1084.4,189.2,1076.4,184.4,1072.5z"/>
	<path fill="#FFFFFF" d="M179.7,1070c-7.7,0-7.7,12,0,12C187.4,1082,187.4,1070,179.7,1070z"/>
	<path fill="#FFFFFF" d="M185.3,1085.2c-3.2,0-3.2,5,0,5C188.6,1090.2,188.6,1085.2,185.3,1085.2z"/>
</g>
<g>
	<path fill="#36C5F3" d="M549.4,1019c-15.5-15.1-40.7,1.8-33.6,22c4.3,12.1,18.8,13.4,28.9,8.1
		C556.1,1043.2,558.4,1027.8,549.4,1019z"/>
	<path fill="#50DEFF" d="M545,1021c-4.9-4-14-3.5-16.6,2.9c-1.1,2.7-0.9,6.1,0,8.8c2.1,6.2,11.7,8.5,16.7,4.3
		C549.9,1032.9,549.8,1024.9,545,1021z"/>
	<path fill="#FFFFFF" d="M540.3,1018.5c-7.7,0-7.7,12,0,12C548,1030.5,548,1018.5,540.3,1018.5z"/>
	<path fill="#FFFFFF" d="M546,1033.7c-3.2,0-3.2,5,0,5C549.2,1038.7,549.2,1033.7,546,1033.7z"/>
</g>
<g>
	<path fill="#36C5F3" d="M1244,1170.1c-15.5-15.1-40.7,1.8-33.6,22c4.3,12.1,18.8,13.4,28.9,8.1
		C1250.7,1194.3,1253,1178.9,1244,1170.1z"/>
	<path fill="#50DEFF" d="M1239.6,1172.1c-4.9-4-14-3.5-16.6,2.9c-1.1,2.7-0.9,6.1,0,8.8c2.1,6.2,11.7,8.5,16.7,4.3
		C1244.5,1184.1,1244.4,1176.1,1239.6,1172.1z"/>
	<path fill="#FFFFFF" d="M1234.8,1169.6c-7.7,0-7.7,12,0,12C1242.6,1181.6,1242.6,1169.6,1234.8,1169.6z"/>
	<path fill="#FFFFFF" d="M1240.5,1184.8c-3.2,0-3.2,5,0,5S1243.7,1184.8,1240.5,1184.8z"/>
</g>
<g>
	<path fill="#36C5F3" d="M1270,736.3c-15.5-15.1-40.7,1.8-33.6,22c4.3,12.1,18.8,13.4,28.9,8.1C1276.7,760.5,1279,745.1,1270,736.3z
		"/>
	<path fill="#50DEFF" d="M1265.6,738.3c-4.9-4-14-3.5-16.6,2.9c-1.1,2.7-0.9,6.1,0,8.8c2.1,6.2,11.7,8.5,16.7,4.3
		C1270.5,750.2,1270.4,742.2,1265.6,738.3z"/>
	<path fill="#FFFFFF" d="M1260.9,735.8c-7.7,0-7.7,12,0,12C1268.6,747.8,1268.6,735.8,1260.9,735.8z"/>
	<path fill="#FFFFFF" d="M1266.5,751c-3.2,0-3.2,5,0,5S1269.8,751,1266.5,751z"/>
</g>
<g>
	<path fill="#36C5F3" d="M805.5,744.4c-17.9-17.4-47,2.1-38.8,25.4c4.9,13.9,21.8,15.4,33.4,9.4
		C813.3,772.3,815.9,754.6,805.5,744.4z"/>
	<path fill="#50DEFF" d="M800.4,746.7c-5.7-4.7-16.2-4-19.1,3.3c-1.2,3.1-1.1,7,0,10.2c2.5,7.2,13.5,9.9,19.3,5
		C806.1,760.5,806,751.2,800.4,746.7z"/>
	<path fill="#FFFFFF" d="M795,743.8c-8.9,0-8.9,13.9,0,13.9S803.9,743.8,795,743.8z"/>
	<path fill="#FFFFFF" d="M801.5,761.3c-3.7,0-3.7,5.8,0,5.8C805.2,767.1,805.2,761.3,801.5,761.3z"/>
</g>
<g>
	<path fill="#36C5F3" d="M966.6,410.2c-13.9-13.5-36.5,1.6-30.1,19.7c3.8,10.8,16.9,12,25.9,7.3
		C972.6,431.9,974.7,418.1,966.6,410.2z"/>
	<path fill="#50DEFF" d="M962.6,412c-4.4-3.6-12.6-3.1-14.8,2.6c-1,2.4-0.8,5.5,0,7.9c1.9,5.6,10.5,7.7,15,3.8
		C967,422.7,966.9,415.5,962.6,412z"/>
	<path fill="#FFFFFF" d="M958.4,409.8c-6.9,0-6.9,10.8,0,10.8C965.3,420.5,965.3,409.8,958.4,409.8z"/>
	<path fill="#FFFFFF" d="M963.5,423.4c-2.9,0-2.9,4.5,0,4.5C966.4,427.9,966.4,423.4,963.5,423.4z"/>
</g>
<g>
	<path fill="#36C5F3" d="M1207.7,128.4c-13.9-13.5-36.5,1.6-30.1,19.7c3.8,10.8,16.9,12,25.9,7.3
		C1213.7,150.1,1215.8,136.3,1207.7,128.4z"/>
	<path fill="#50DEFF" d="M1203.7,130.2c-4.4-3.6-12.6-3.1-14.8,2.6c-1,2.4-0.8,5.5,0,7.9c1.9,5.6,10.5,7.7,15,3.8
		C1208.1,140.9,1208,133.7,1203.7,130.2z"/>
	<path fill="#FFFFFF" d="M1199.5,128c-6.9,0-6.9,10.8,0,10.8C1206.4,138.7,1206.4,128,1199.5,128z"/>
	<path fill="#FFFFFF" d="M1204.6,141.6c-2.9,0-2.9,4.5,0,4.5C1207.5,146,1207.5,141.6,1204.6,141.6z"/>
</g>
<g>
	<path fill="#36C5F3" d="M277.2,454.7c-13.9-13.5-36.5,1.6-30.1,19.7c3.8,10.8,16.9,12,25.9,7.3
		C283.2,476.3,285.3,462.6,277.2,454.7z"/>
	<path fill="#50DEFF" d="M273.2,456.5c-4.4-3.6-12.6-3.1-14.8,2.6c-1,2.4-0.8,5.5,0,7.9c1.9,5.6,10.5,7.7,15,3.8
		C277.6,467.2,277.5,460,273.2,456.5z"/>
	<path fill="#FFFFFF" d="M269,454.2c-6.9,0-6.9,10.8,0,10.8C275.9,465,275.9,454.2,269,454.2z"/>
	<path fill="#FFFFFF" d="M274.1,467.8c-2.9,0-2.9,4.5,0,4.5C277,472.3,277,467.8,274.1,467.8z"/>
</g>
<g>
	<path fill="#36C5F3" d="M144.9,569.7c-13.9-13.5-36.5,1.6-30.1,19.7c3.8,10.8,16.9,12,25.9,7.3
		C150.9,591.3,152.9,577.5,144.9,569.7z"/>
	<path fill="#50DEFF" d="M140.9,571.4c-4.4-3.6-12.6-3.1-14.8,2.6c-1,2.4-0.8,5.5,0,7.9c1.9,5.6,10.5,7.7,15,3.8
		C145.3,582.1,145.2,575,140.9,571.4z"/>
	<path fill="#FFFFFF" d="M136.7,569.2c-6.9,0-6.9,10.8,0,10.8C143.6,580,143.6,569.2,136.7,569.2z"/>
	<path fill="#FFFFFF" d="M141.8,582.8c-2.9,0-2.9,4.5,0,4.5C144.7,587.3,144.7,582.8,141.8,582.8z"/>
</g>
<g>
	<path fill="#36C5F3" d="M206.9,157.2c-13.9-13.5-36.5,1.6-30.1,19.7c3.8,10.8,16.9,12,25.9,7.3C213,178.9,215,165.1,206.9,157.2z"
		/>
	<path fill="#50DEFF" d="M203,159c-4.4-3.6-12.6-3.1-14.8,2.6c-1,2.4-0.8,5.5,0,7.9c1.9,5.6,10.5,7.7,15,3.8
		C207.4,169.7,207.3,162.5,203,159z"/>
	<path fill="#FFFFFF" d="M198.8,156.8c-6.9,0-6.9,10.8,0,10.8C205.7,167.5,205.7,156.8,198.8,156.8z"/>
	<path fill="#FFFFFF" d="M203.9,170.4c-2.9,0-2.9,4.5,0,4.5C206.7,174.9,206.7,170.4,203.9,170.4z"/>
</g>
<g>
	<path fill="#36C5F3" d="M1143.7,447.6c-20.9-20.4-55.1,2.4-45.4,29.8c5.8,16.3,25.5,18.1,39.1,11
		C1152.8,480.3,1155.9,459.6,1143.7,447.6z"/>
	<path fill="#50DEFF" d="M1137.7,450.3c-6.7-5.5-19-4.7-22.4,3.9c-1.5,3.7-1.2,8.2,0,12c2.9,8.5,15.9,11.6,22.6,5.8
		C1144.3,466.5,1144.2,455.7,1137.7,450.3z"/>
	<path fill="#FFFFFF" d="M1131.3,447c-10.5,0-10.5,16.2,0,16.2C1141.8,463.2,1141.8,447,1131.3,447z"/>
	<path fill="#FFFFFF" d="M1139,467.5c-4.4,0-4.4,6.8,0,6.8S1143.4,467.5,1139,467.5z"/>
</g>
<g>
	<path fill="#36C5F3" d="M290.9,341.6c-5.4-6.9-12.9-11.8-19.5-17.5c-6.8-5.9-11.7-13.6-14.8-22c-2.8-7.4-3.6-15.3-3.2-23.1
		c0.5-9.5,5-17.8,7.5-26.8c2.7-10-1.9-23.1-11.6-25.6c-4.2-2.1-9.3-2.3-13.6,0.2c-7.8,4.5-10.2,12.8-15.8,19.3
		c-6.5,7.6-18.8-0.2-26.7-1.1c-9.1-1-17.6,2.2-25.6,6.4c-32,17-42.9,56.6-32.4,89.6c5.3,16.7,16.8,34.5,33.3,41.7
		c16.4,7.1,35.3,1.1,49.4-8.3c7.9-5.3,15.3-11.6,25.4-8.7c10.5,3,10.6,15.3,16.6,22.5c10.7,12.6,29.2,8.3,37.6-4.5
		C306.3,370.1,299.9,353,290.9,341.6z M222,333.8c-5.2,5.6-14.1,5.5-20.5,2.5c-15.7-7.3-18.9-27.7-13.7-42.5
		c3.5-9.8,20.6-27.9,31.9-17.2c4.9,4.6,2.4,13.1,2.4,19c0.1,5.4,0.8,10.6,2.6,15.6C226.1,319.1,228,327.4,222,333.8z"/>
	<path fill="#50DEFF" d="M197.1,350.7c-7.6-0.1-15.3-0.7-22.6-2.9c-2.8-0.9-4.6-1.1-6.8-3.1c-2.8-2.4-4.6-5.1-6.3-8.3
		c-3.6-6.6-4-14.2-4.1-21.5c0-4,0.1-8.3,0.6-12.3c0.6-4.3,2.3-8,0.8-12.3c-0.5-1.3-2-2.6-3.5-2c-4.6,1.9-6.2,5.3-8.4,9.6
		c-2.7,5.3-5,10.6-6.1,16.5c-2.1,10.6-0.3,21.9,4.2,31.6c4.1,9,10.9,17,18.9,22.7c10.7,7.6,24.2,6.7,36.4,4.9
		c5.1-0.7,8.6-6.6,8.6-11.3C208.8,356,203.5,350.8,197.1,350.7z"/>
	<path fill="#50DEFF" d="M290.5,355.6c-3.9-7-10.9-12.3-16.7-17.5c-5.4-4.9-11.1-9.4-16.1-14.7c-1.9-1.9-8.4-12.8-12.3-8.4
		c-7.5,8.3,7.7,23,13.1,28.6c7.7,8.1,16.1,18,12.2,29.8c-5,15.4,21.2,22.1,23.8,6.6C296,371.1,294.9,363.4,290.5,355.6z"/>
	<path fill="#50DEFF" d="M241.6,242c-0.1,0-0.2,0.1-0.3,0.1c-0.3,0.1-0.3,0.5,0,0.6c0.1,0,0.2,0.1,0.3,0.1
		C242.2,242.9,242.2,241.8,241.6,242z"/>
	<path fill="#50DEFF" d="M241.7,232.9c-6.8,0-12.4,5.7-12.4,12.4s5.7,12.4,12.4,12.4c6.8,0,12.4-5.7,12.4-12.4
		S248.4,232.9,241.7,232.9z"/>
	<path fill="#FFFFFF" d="M171.3,362.9c-19.3-6.9-24.6-27.5-27.1-45.6c-0.2-1.4-2.3-1.2-2.6,0c-1.4,5.4-2.2,9.8-1.3,15.5
		c1,6.1,2.7,12,5.5,17.5c4.6,9.1,12.8,16.4,22.2,20.4C173.7,373,177.1,365,171.3,362.9z"/>
	<path fill="#FFFFFF" d="M186,364c-8.4,0-8.4,13.1,0,13.1S194.4,364,186,364z"/>
	<path fill="#FFFFFF" d="M272,341c-1.1-0.5-2.5,0.6-1.7,1.7c3.6,5.7,7.9,10.7,10.1,17.2c1.4,4,3.9,15.3-2,17.2
		c-8.1,2.5-2.5,14.7,4.4,10.3C301.3,375.6,288.1,348,272,341z"/>
	<path fill="#FFFFFF" d="M243.8,233.7c-4.4,0-8.1,3.7-8.1,8.1c0,4.4,3.7,8.1,8.1,8.1s8.1-3.7,8.1-8.1
		C251.8,237.3,248.2,233.7,243.8,233.7z"/>
</g>
<g>
	<path fill="#36C5F3" d="M453.7,297.5c-4.5-20.9-22.1-37.1-43.2-40c-10.7-1.5-20.1,1.6-29.5,6.4c-7.2,3.7-17.9,8.5-24.7,1.4
		c-6.3-6.6-1.3-19.9-0.2-28c1.2-9.1,2-18.4,1.4-27.6c-1.2-17.7-9.5-32.9-28.8-34.3c-15.7-1.1-27.6,11.7-32.7,25.2
		c-6.4,17-0.7,36.9,5.2,53.2c6.3,17.3,17.4,32.2,24,49.3c7.1,18.3,8,37.7,6.3,57c-1.2,13.4,2.6,30.2,19,31.1
		c13.1,0.7,22.4-8.7,24.5-20.6c20.8,3.1,44.6,0.9,61.3-11.8C454,345.2,458,317.8,453.7,297.5z M398.1,338.3c-7.1,6.2-26.5,11-31-0.8
		c-2.1-5.5-5-36.2-3-41.5c0.1,0,0.3,0,0.4-0.1c13.6-4.2,29.8-3.9,39,8.6C411.5,315.3,407.5,329.9,398.1,338.3z"/>
	<path fill="#50DEFF" d="M446.1,312.2c-0.5-10.9-4.6-21.7-11.6-30.6c-6.8-8.6-18.8-12.6-29.3-13.5c-4.7-0.4-10.3,0.8-14.8,2.3
		c-4.5,1.6-9.8,3.1-13.1,6.6c-1.3,1.4-0.6,3.4,1.1,4c3.3,1.3,6.9,1.1,10.4,1.4c3.7,0.3,7.4,0.7,11,1.5c3.4,0.7,6.9,1.3,10,2.8
		c3.6,1.7,5.7,4.5,8,7.7c5.5,7.9,7.1,18.1,6.2,27.5c-0.8,8-3.1,20.9-11.3,24.2c-4.8,1.9-4.9,8,0,9.8c10.9,4.1,21.4-7.8,26.5-16
		C444.4,331.5,446.6,321.8,446.1,312.2z"/>
	<path fill="#50DEFF" d="M332.6,214.9c1.7-1.5,3.7-2.9,5.8-4.5c5.8-4.3,7.1-12.3,3.5-18.4c-6.8-11.5-19.4-6.8-26.5,1.3
		c-8.3,9.5-11.7,22.3-10.9,34.7c0.4,6.3,1.9,12.6,4.4,18.5c2.6,5.9,6.7,10.7,9.7,16.3c1.8,3.4,3.4,7,6,9.9c1.9,2.1,5.8,0.5,5.6-2.3
		c-0.4-5.7-3.1-11-3.7-16.8c-0.8-7.8-2.4-15.9-1.6-23.9C325.6,222.4,328.3,218.6,332.6,214.9z"/>
	<path fill="#FFFFFF" d="M332,185.2c-9.4,0-9.4,14.6,0,14.6S341.4,185.2,332,185.2z"/>
	<path fill="#FFFFFF" d="M326.2,265.3c-6.8-8.3-10.4-18.2-10.1-28.9c0.3-10.4,4.6-19.8,7.9-29.5c1.6-4.7-5.2-8.8-8.5-4.9
		c-16.6,19.4-7.9,49.5,6.6,67.4C324.5,272.3,328.6,268.2,326.2,265.3z"/>
	<path fill="#FFFFFF" d="M426.3,272.9c-4.6,0-8.4,3.8-8.4,8.4c0,4.6,3.8,8.4,8.4,8.4s8.4-3.8,8.4-8.4
		C434.7,276.7,430.9,272.9,426.3,272.9z"/>
	<path fill="#FFFFFF" d="M440.7,296.5c-1.4-2.4-6-1.6-5.6,1.5c1.1,9.9,3.4,18.5,1.5,28.5c-1.7,8.7-6.7,17.6-13.9,22.9
		c-3.1,2.3-0.1,7.5,3.1,5.2c8.3-6,14.1-13.5,17.3-23.2C446.6,321,446.5,306.2,440.7,296.5z"/>
</g>
<g>
	<path fill="#36C5F3" d="M618.2,330.3c-6.1-8.1-16.4-10.4-25.9-8.4c-11.9,2.5-16.2,14.4-22,23.4c-19.2,29.8-52.6-0.3-53.8-25.3
		c-1.2-26.5,14.5-40.6,38.8-36.8c8.8,1.4,18.2,1.5,26.4-2.5c15.3-7.4,18.8-24.1,10.1-38.1c-9.3-15-30-17.3-45.9-14.8
		c-18.5,2.9-35.5,11.1-47,26.1c-10.4,13.6-13.6,31.9-14.2,48.6c-0.6,19,3.2,38.7,15.1,53.9c11.4,14.5,27.4,25.1,45.1,30.1
		c19.7,5.6,42.4,1.7,59.8-8.9C620.4,368,630.3,346.5,618.2,330.3z"/>
	<path fill="#50DEFF" d="M588.4,250.2c-5.3-8.3-13.3-13.7-22.9-15.8c-9.6-2.1-20.4,1.2-29.5,4.4c-8.5,3-16.7,7.9-23.2,14.1
		c-4.9,4.6-11.4,12.9-9.8,20.1c0.1,0.5,0.8,1,1.3,0.8c5-2,8.6-6.8,13-9.9c5.6-3.9,11.4-6.2,18-7.5c6.2-1.2,12.9-2.5,19.3-1.4
		c5,0.9,10.8,2.5,13.5,7C576,274.9,596.5,262.9,588.4,250.2z"/>
	<path fill="#50DEFF" d="M609,331c-5.4-1.5-12.1,1.3-14.4,6.5c-1.2,2.9-0.8,6-1.5,9c-1.9,8.5-10.4,14.6-17.7,18.1
		c-3.7,1.8-7.6,3.1-11.5,4.2c-3.4,1-12.6,0.5-13.1,5.3c-0.8,8.1,17.4,7.3,21.8,7c12.1-0.8,26.5-5,35.1-14.1
		c5.4-5.8,7.9-13.6,9.8-21.1C619.1,339.5,615.4,332.8,609,331z"/>
	<path fill="#FFFFFF" d="M573.7,241c-12-5.5-24-5.7-36.6-2.1c-6.2,1.8-12.2,4.7-17.4,8.4c-4,2.8-10.2,6.8-11.2,11.9
		c-0.1,0.6,0.3,1.3,0.9,1.2c4-0.5,7.3-3.7,10.7-5.7c5-2.9,10.4-5.3,16-7c10.2-3.1,22.5-1.9,32.2,2.6
		C574.5,253.3,580,243.9,573.7,241z"/>
	<path fill="#FFFFFF" d="M579.5,252c-3.5,0-6.5,2.9-6.5,6.5s2.9,6.5,6.5,6.5s6.5-2.9,6.5-6.5S583,252,579.5,252z"/>
	<path fill="#FFFFFF" d="M606.8,335c-3.8,0-7,3.2-7,7s3.2,7,7,7s7-3.2,7-7S610.6,335,606.8,335z"/>
	<path fill="#FFFFFF" d="M597.8,356.7c-4.5,7-13.2,11.5-20.7,14.7c-4.7,1.9-9.8,3.1-14.9,3.6c-4.1,0.4-8.2-0.9-12.2-0.3
		c-0.2,0-0.2,0.3-0.1,0.4c6.1,7.5,21,5.1,29,2.8c10.1-2.9,20.3-8,26.2-16.9C608,356.4,600.7,352.2,597.8,356.7z"/>
</g>
<g>
	<path fill="#36C5F3" d="M772.8,323.3c-3.6-9.7-5-20-5.2-30.2c-0.5-20.8,6.3-39.8,13.6-58.9c7.8-20.5,16.4-46.3,1.3-65.6
		c-6.3-8-19-11.3-28.7-9.6c-11.4,2-18.3,10.4-20.4,21.5c-2.4,12.8,2.5,27,4.1,39.7c1.5,11.8,5.5,31.7-11.9,31.8
		c-9.2,0-18.3-2.6-27.3-0.2c-28,7.5-42.1,39.1-41.9,65.9c0.2,18,7.1,35.7,19.5,48.6c13,13.6,34.3,12.8,51.5,10.4
		c4.4-0.6,8.6-2.3,12.6-4.3c4.3-2.2,8-5.2,13-2.9c6.5,3,11.1,9.3,18.7,10.2c6.8,0.7,12.1-2.7,15.5-8.4c4.3-7.1,2.5-15.4-0.5-22.4
		C782.6,340.1,776.2,332.6,772.8,323.3z M719.4,335.9c-7-2.4-13.5-7-15.6-14.3c-1.8-6.6-0.8-13.9,1.3-20.3
		c4.7-14.2,20.3-21.9,34.3-17.4c0.1,0,0.1,0,0.2,0c1.4,4.5-0.5,12-0.4,15.4c0,6.1,2.3,11.9,5.4,17.1c1.6,2.7,3.4,5.2,4.4,8.2
		c1.3,3.9-3.5,6.6-6,8.2C735.2,337.6,728.1,338.9,719.4,335.9z"/>
	<path fill="#50DEFF" d="M755,167.9c-8.8-1.1-11.9,10.9-6.7,16.3c6.3,6.7,5.4,15.3,5.2,23.7c-0.2,10.4-1.8,21.1-1.2,31.5
		c0.3,7.2-0.7,16.3,3.4,22.7c0.5,0.7,1.4,0.5,1.7-0.2c2.4-5.6,2.7-11.8,5.1-17.5c3.6-8.7,9.3-16.5,12.1-25.5c3.2-10.5,4-21.5,2-32.3
		C774.7,176.7,764.8,169.2,755,167.9z"/>
	<path fill="#50DEFF" d="M724.4,346.4c-13.7,1.6-27.6-2.6-37-12.9c-4.6-5-7-11.9-7.5-18.6c-0.6-7.6,2.3-15.9,0.4-23.3
		c-0.5-2-3-3.7-5-2.9c-9.4,3.9-11.8,15.5-12.2,24.6c-0.4,10.6,2.8,21.7,8.3,30.7c11.5,18.6,34.8,27.6,55.7,21.8
		C737.5,363,735.8,345,724.4,346.4z"/>
	<path fill="#FFFFFF" d="M702.7,355.6c-7.6-1.5-14-5-20-9.9c-6.7-5.5-10.4-13.9-13.8-21.6c-0.7-1.5-2.7-0.3-2.4,1
		c1.6,10,4.4,18,10.9,25.9c5.6,6.9,14.4,11.2,22.9,13C705.9,365.3,708.2,356.7,702.7,355.6z"/>
	<path fill="#FFFFFF" d="M723.5,353.1c-10.2,0-10.2,15.9,0,15.9S733.7,353.1,723.5,353.1z"/>
	<path fill="#FFFFFF" d="M763.8,170.2c-4.3,0-7.8,3.6-7.8,7.8c0,4.3,3.6,7.8,7.8,7.8s7.8-3.6,7.8-7.8
		C771.6,173.7,768,170.2,763.8,170.2z"/>
	<path fill="#FFFFFF" d="M773,194c-0.3-0.1-0.6-0.1-0.7,0.2c-2,3.2-1.3,7.2-1.1,10.7c0.3,5.1-0.3,10.1-1.4,15.1
		c-2.1,9.5-6.2,18.7-10.1,27.6c-1.6,3.6,3.6,6.8,5.4,3.2c4.9-9.9,9.5-19.8,11.6-30.7C778,213.3,780.9,197.9,773,194z"/>
</g>
<g>
	<path fill="#36C5F3" d="M906.6,220.6c-36.7-9.7-78.4,19-88.2,54.3c-5,18.1-6.2,38.4-1,56.5c5,17.7,18.9,31.9,34.9,40.3
		c13.2,6.9,29,7.7,41.4-1.1c10.9-7.7,15.4-21.7,8.9-33.6c-8.5-15.8-29.8-5.2-42.9-4.7c-9.4,0.4-17.3-7.4-18.3-16.5
		c-0.7-6.4,3.3-13.6,9-16.4c7.7-3.8,15.1,2.4,21.6,6.1c8.8,5,17.8,9.8,27.7,12.1c15.9,3.6,32.9-3.4,42.2-16.6
		C964.4,269.5,940.3,229.5,906.6,220.6z M903.9,284.6c-11.3,5.8-19.1-4.4-28.5-8.9c-12-5.8-11.7-24.1,3-25.9
		c11.1-1.3,21.4,2,28.2,11C912.3,268.1,913.5,279.7,903.9,284.6z"/>
	<path fill="#50DEFF" d="M941.2,267.9c-1.4-11.4-7.3-20.4-15.4-28.4c-5.8-5.8-16.9-12.6-25.5-9.8c-2.2,0.7-2.8,3.2-1.3,4.9
		c1.9,2.2,4.4,3.6,6.6,5.5c2.7,2.4,5,5.1,7.4,7.8c4.4,5.1,6.2,11.5,7.7,17.9c1.4,5.6,1.5,11.3-1.5,16.3c-2.2,3.8-7.9,7.3-10.9,7.7
		c-6.2,0.8-11.4,4.6-11.4,11.4c0,5.7,5.2,12.1,11.4,11.4c11.1-1.2,19.7-5.9,25.8-15.3C939.9,288.7,942.5,278.3,941.2,267.9z"/>
	<path fill="#50DEFF" d="M877.5,345.1c-4.3,6.3-14.7,7.3-21.6,5.5c-5.6-1.5-9.6-5.7-14.5-8.5c-2-1.2-6.8-5.2-9-2.2
		c-3,4.1,3,11.3,5.7,14c5.1,5.2,11.5,9.6,18.3,12.3c13.1,5.2,28.3,2.9,37.7-8.2C904.1,346.2,886.1,332.4,877.5,345.1z"/>
	<path fill="#FFFFFF" d="M909,297c-3.9,0-7.2,3.3-7.2,7.2c0,3.9,3.3,7.2,7.2,7.2s7.2-3.3,7.2-7.2C916.2,300.3,912.9,297,909,297z"/>
	<path fill="#FFFFFF" d="M930,243.6c-2.6-3.8-8,0.3-5.1,3.9c6.2,7.7,9,16.4,9.2,26.3c0.1,4.3-1,8.6-2.8,12.5c-2.1,4.6-6,6.7-10,9.3
		c-5.4,3.6-0.5,12.1,5.1,8.7c8.9-5.3,13.8-17.7,14.9-27.6C942.9,264.8,936.6,253.1,930,243.6z"/>
	<path fill="#FFFFFF" d="M880,357.3c-6.8,3.1-13.8,3.4-21.1,2.9c-6.7-0.4-11.4-5.5-17.5-7.1c-0.1,0-0.1,0-0.1,0.1
		c1.8,6.7,10.9,10.6,16.8,12.6c8.5,3,17.6,1.5,25.6-2.2C888,361.7,884.3,355.4,880,357.3z"/>
	<path fill="#FFFFFF" d="M890.5,342.9c-6.9,0-6.9,10.7,0,10.7S897.4,342.9,890.5,342.9z"/>
</g>
<g>
	<path fill="#36C5F3" d="M1089.3,140.6c-34.5-10.7-75.3,2.5-89.7,37.2c-7.1,17.1-7,36.2,0.2,53.3c3.1,7.3,16.3,21.7,3.7,25.8
		c-8.1,2.7-15.4,5.7-19.8,13.4c-5.9,10.4,1.5,21.6,12.3,23.5c6,1,11.7-1.4,16.7-4.4c3-1.8,7.2-7.4,10.9-3.9
		c2.9,2.7,3.4,8.7,3.8,12.3c1.8,16.3-4.7,32.7-9.2,48c-3.8,12.8-4.9,27.4,5.4,37.5c7.8,7.6,20.2,7.2,29.5,3.1
		c11.8-5.2,17.9-18.9,19.8-30.8c2.2-13.5-0.1-28-2.8-41.3c-1.9-9.1-4.8-18-8.7-26.5c-1.8-4,0.1-8.6,4.3-9.9c4.6-1.5,9-3.8,12.8-7.4
		c6.4-6.2,7.2-15.6,3.1-23.2c-9.8-18.3-30.5,3.9-44.7,0.4c-0.1-0.1-0.1-0.2-0.2-0.3c-12.7-11.9-19.6-39.5-5.1-52.7
		c6.8-6.2,16.9-5.4,24.2-1c8.3,5,15,11.1,25.2,12.1c18.1,1.9,31.9-9.9,33.2-27.9C1115.4,160.1,1106.2,145.9,1089.3,140.6z"/>
	<path fill="#50DEFF" d="M1108.8,175.8c-2.5-18.3-22.2-28.4-38.9-30.5c-15.9-2-32.6,3.4-45.2,13.2c-15.1,11.7-22.9,29.5-23.7,48.3
		c-0.1,2.6,1.8,10.3,5.7,6.7c4-3.6,4.8-13.2,7.1-18.1c11.1-22.9,32.3-31.4,56.7-27.6c6.9,1.1,14.5,5.9,15,11.3
		c0.6,6.4,5,11.9,11.9,11.9C1105.8,190.9,1109.8,183.3,1108.8,175.8z"/>
	<path fill="#50DEFF" d="M1045.7,357.1c-4.5-5.9,0.4-19,1.5-25.8c0.9-5.8,1.3-11.9,0-17.7c-0.8-3.5-3.7-13.6-8.4-12.9
		c-6,0.8-6.2,14.1-7.4,18.4c-3.5,12.7-11.1,24.5-10.3,38.1c0.7,10.7,6.6,20.3,17,23.9c6.4,2.2,12.3-1.5,14.3-7.7
		c0.9-2.9,0.9-6.1-0.2-8.9C1050.7,360.8,1047.6,359.6,1045.7,357.1z"/>
	<path fill="#FFFFFF" d="M1044,374.2c-10.4-3.2-12.3-13.8-12-23.4c0.1-5.1,1.2-10.1,2.2-15.1c0.9-4.3,2.7-8.9,2.1-13.3
		c-0.2-1.1-1.7-1.3-2.4-0.6c-3.8,3.9-5.3,10.6-6.8,15.7c-1.9,6.4-3,13.2-3,19.9c0,11.1,6.9,23.1,18.9,24
		C1047.3,381.8,1047.8,375.4,1044,374.2z"/>
	<path fill="#FFFFFF" d="M1054.3,357.8c-4.3,0-7.9,3.6-7.9,7.9c0,4.3,3.6,7.9,7.9,7.9s7.9-3.6,7.9-7.9
		C1062.2,361.4,1058.6,357.8,1054.3,357.8z"/>
	<path fill="#FFFFFF" d="M1088.9,159.4c-24.2-21.7-77-4.1-79.7,29.7c0,0.5,0.7,0.7,0.9,0.2c6.8-13.1,15.8-23.3,30.1-28.4
		c12.5-4.4,32.1-4.6,42.7,4.4C1087,168.8,1093,163,1088.9,159.4z"/>
	<path fill="#FFFFFF" d="M1094.3,172.7c-9.7,0-9.7,15.1,0,15.1S1104,172.7,1094.3,172.7z"/>
</g>
<g>
	<path fill="#36C5F3" d="M1270.4,213.6c0.9-13.9-8-26-22.6-25.5c-13,0.4-20.7,11.2-23.3,22.8c-22.1-20.3-62.5-3.7-79.5,16.3
		c-22.5,26.5-21.5,73.1,7,94.9c16,12.2,39,10.5,56.9,4.8c9.2-2.9,20.9-6.7,29.1,0.6c3.8,3.3,4.4,9.2,4.5,13.8
		c0.1,7.8-5,11.9-11.9,14.1c-10.3,3.3-19.9-0.5-28.8-5.7c-7.7-4.5-14.9-6.8-23.8-5.5c-16.5,2.4-24.8,20.1-21,35.1
		c3.7,14.7,19.7,21.1,33.1,22.9c17,2.3,37.2,0,51.9-9.1c12.1-7.4,20.7-19.7,25.3-33c5.4-15.6,2.4-32.5-2.3-47.9
		c-5-16.4-12.3-32.2-13.4-49.5c-0.6-10,2-17.9,8-25.8C1264.9,230.2,1269.8,222.3,1270.4,213.6z M1184.8,288.2
		c-19.9-18,4.5-55.4,26.5-46.4c4.3,1.7,7.1,5.9,7.2,10.5c0.1,4.1,0.8,8,2,12.1c2,6.8,6.1,13.6,2.3,20.5
		C1215.5,298,1194.5,296.9,1184.8,288.2z"/>
	<path fill="#50DEFF" d="M1206,208.3c-26.3-2.6-52.4,14-63.3,37.6c-5.6,12.1-7.5,25.3-5.6,38.4c1.2,8.5,7.7,27.4,19.6,23.9
		c0.7-0.2,1.4-0.8,1.5-1.5c0.6-3.7-0.4-7-1.4-10.5c-1.3-4.7-1.7-9.4-1.9-14.2c-0.5-9.3,1.9-18.8,6.4-27
		c8.9-16.4,26.9-24.1,44.7-23.1c6.4,0.4,11.8-5.6,11.8-11.8C1217.8,213.2,1212.4,209,1206,208.3z"/>
	<path fill="#50DEFF" d="M1220.3,376.4c-4.3-0.4-8.5,2-12.8,2.2c-4.4,0.2-8.4-0.8-12.6-2.2c-3.9-1.3-7.5-2.5-11-4.6
		c-3.4-2.2-3.3-6.6-5.9-9.6c-2.1-2.5-7.1-3.3-9.7-1.3c-6.7,5.2-6,12.9-1.3,19.4c4.2,5.8,10.1,9,16.6,11.7c6.6,2.7,13.6,2.2,20.5,1.4
		c6.2-0.7,16.2-2,20.3-7.2C1227.5,382.2,1225.6,376.9,1220.3,376.4z"/>
	<path fill="#FFFFFF" d="M1191.5,215.5c-19.7,0.7-37.7,17.1-46,34c-4.4,9-6.3,18.8-6.1,28.7c0.2,9.9,2.7,21.7,10.1,28.7
		c0.3,0.2,0.8,0.1,0.8-0.3c-0.9-8.4-3.5-16.4-4.1-24.9c-0.6-9.2,1.2-18.7,4.9-27.1c6.6-15.2,23.1-31.1,40.4-31.6
		C1196.3,222.9,1196.4,215.3,1191.5,215.5z"/>
	<path fill="#FFFFFF" d="M1209.5,210.6c-8.8,0-8.8,13.7,0,13.7S1218.3,210.6,1209.5,210.6z"/>
	<path fill="#FFFFFF" d="M1170.5,362.6c-3.6,0-6.6,3-6.6,6.6s3,6.6,6.6,6.6s6.6-3,6.6-6.6S1174.1,362.6,1170.5,362.6z"/>
	<path fill="#FFFFFF" d="M1229.2,377c-3.5,1.2-6.7,3.3-10.1,4.9c-4.6,2.1-9.5,3.4-14.4,4.4c-4.5,1-9.2,0.8-13.7,0.1
		c-3.8-0.6-7.3-2.7-11.1-2.8c-0.3,0-0.5,0.4-0.4,0.6c4.5,6.7,16.9,6.8,24.1,6.7c9.1-0.2,20.9-3.8,27.8-9.8
		C1233.4,379.5,1231.5,376.2,1229.2,377z"/>
</g>
<g>
	<path fill="#36C5F3" d="M1245.7,608.6c-3-7.3-4.6-14.4-4.9-22.1c0.2-0.4,0.4-0.9,0.5-1.5c1.9-13.8,3.5-27.7-1.5-41.1
		c-4.6-12.3-14.8-20.1-27.6-22.4c-18.7-3.4-42.8,1.4-55.7,16.2c-0.3-3.2-1.2-6.3-2.9-9.4c-3.6-6.5-11.7-8.8-18.5-8
		c-17.1,2.1-21.6,20.8-19.6,35.1c1.3,9.5,5.9,18.4,8.8,27.5c3.6,11.2,2.4,23.3,1.3,34.8c-1.6,16.7-11.3,40.9,1.3,55.5
		c9.4,10.8,27.4,13.2,36.3,0.3c11.3-16.4,1.5-34.6-3.2-51.3c-2.8-10.1-3.4-21.5,1.7-31c4.8-8.9,16.1-14.2,25.4-9.1
		c7.2,3.9,10.1,13.6,10.8,21.2c1,11.2-2.7,22.5-4,33.5c-1.5,13.1,0,26,8.3,36.7c7.8,10,22.1,11.3,33.2,6.9
		c11.8-4.8,19.1-16.5,20.7-28.7C1258.3,636,1251.5,622.6,1245.7,608.6z"/>
	<path fill="#50DEFF" d="M1212,534.3c-7.2-2.8-15.3-2.6-22.8-1.1c-7.4,1.5-13,5-18.1,10.4c-0.3,0.3,0,0.9,0.5,0.8
		c13.7-4,27.4-1.6,37.2,9c3.6,3.9,5.8,9.5,6.8,14.6c0.8,4.3-0.4,8.2,3.2,11.8c3.8,3.8,8.3,3.8,12.9,1.7c3.4-1.6,5.1-5.7,5.3-9.2
		C1237.7,555.6,1227.3,540.4,1212,534.3z"/>
	<path fill="#50DEFF" d="M1150.2,661c-2.8-4.5-7.7-5.5-9.4-10.7c-1.9-5.7-0.4-12.3-3.5-17.6c-1-1.8-3.7-2.6-5.4-1.4
		c-7.7,5.3-8.4,16.5-6.6,24.8c1.9,9,10.1,19.3,20,17.1C1150.4,672,1152.9,665.3,1150.2,661z"/>
	<path fill="#50DEFF" d="M1243.2,628.3c-1.7-5.8-4.9-15.1-10.7-17.7c-1.8-0.8-4.3-0.3-4.8,2c-0.9,4,0.6,8.4,1.4,12.3
		c1,5.2,0.7,10.1-0.4,15.2c-0.8,3.6-1.5,6-3.8,7.4c0.9-0.3,0.7-0.2-0.7,0.3c-0.8,0.3-1.7,0.6-2.6,0.9c-1.3,0.4-2.1,0.5-4.8,0.4
		c-16.3-0.6-16.3,25.4,0,25.3c6.5,0,13.8-1.3,19.2-5.3c7-5.2,10.2-11.7,11.1-20.4C1247.7,641.8,1245.1,634.8,1243.2,628.3z"/>
	<path fill="#FFFFFF" d="M1137.3,658c-8.4,0-8.4,13,0,13S1145.6,658,1137.3,658z"/>
	<path fill="#FFFFFF" d="M1214.5,660.8c-3.9,0-7.2,3.3-7.2,7.2s3.3,7.2,7.2,7.2s7.2-3.3,7.2-7.2S1218.4,660.8,1214.5,660.8z"/>
	<path fill="#FFFFFF" d="M1246.9,645.5c-0.2-5.5-2-11.1-3.7-16.2c-1.6-4.8-3.1-10.5-6.4-14.4c-0.9-1.1-3-0.2-2.9,1.2
		c0.2,3.8,2,7.4,3.2,11.1c1.6,5,2.7,10.2,2.7,15.5c0.1,8.5-2.9,15.8-8.7,21.9c-4.4,4.6,2.2,11,6.9,6.9
		C1245.3,665,1247.3,654.9,1246.9,645.5z"/>
	<path fill="#FFFFFF" d="M1219.3,536.7c-8.5-4.4-20.6-4.8-29.3-0.8c-0.8,0.3-0.5,1.6,0.2,1.7c7.9,1.7,16,1.2,23.9,3.9
		c3.6,1.3,6.8,3.7,9.4,6.5c2.7,2.9,2.9,7,5.6,9.6c1.5,1.5,3.6,0.6,4.3-1.1C1236.6,548.7,1225.1,539.7,1219.3,536.7z"/>
</g>
<g>
	<path fill="#36C5F3" d="M1080.7,602.4c-4-18.3,8.1-36.1,2.5-54.7c-4.1-13.7-17.7-23.2-31.5-25.2c-16-2.3-30.5,5.2-41.7,16
		c-4.6,4.4-10,9.2-16.2,11c-8.1,2.3-11.9-2.2-16.8-7.7c-10.8-12.1-25.7-20.5-42.3-17.2c-17.8,3.5-27.3,20.8-27.6,37.6
		c-0.4,22.2,9.5,42.8,5,65.3c-3,14.9-8.2,35.5,6.8,46.2c13.1,9.3,34.8,6.2,41-9.7c7.1-18.2,0.2-37.7-9.1-53.6
		c-5.7-9.7-8.6-19.1-8.9-30.4c-0.2-5.8,0.6-11.8,5.5-15.6c4.8-3.7,11-2.9,16-0.2c9.4,5.1,9.9,17.9,10.1,27.2
		c0.2,11.9-2.7,23.4-4.4,35.1c-2.4,16.2,0.2,34.2,15.1,43.5c14.1,8.8,33.2,0.4,39.3-14c8.5-20.1-5.5-38.8-11-57.5
		c-3-10.1-2.9-22.4,1.8-31.9c6.3-12.7,20.7-8.5,25.3,2.8c4.1,10.1,0,22.3-2.5,32.3c-2.6,10.6-4.9,21.3-4.6,32.3
		c0.4,16.5,8.7,32.4,24.6,38.3c15,5.5,30.4-3,34.6-17.9C1096.9,636.2,1084.4,619.3,1080.7,602.4z"/>
	<path fill="#50DEFF" d="M951.7,632.5c-1.1-6.2-4.7-12.3-8-17.6c-1.4-2.2-6-7.2-9-4.8c-2.2,1.7-2,5.3-2,7.8c0,4.6,1.2,8.9,0.9,13.6
		c-0.1,2.1-1.1,5.1-1.6,5.7c-1.1,1.3-2.3,2.7-3.5,3.9c2-2-3.7,1.7-0.4,0.4c-8.9,3.5-14.3,13.1-9,22.1c5.3,9,16.3,9.1,23.7,3.1
		C953.4,658,953.9,645,951.7,632.5z"/>
	<path fill="#50DEFF" d="M1015.8,632c-1.3-9-5.2-17.3-12.5-22.9c-0.9-0.7-2-1.4-3.1-1.4c-4.9-0.2-3.3,15.7-3.8,18.9
		c-0.4,2.6-0.9,6.1-2.8,8c-2.2,2.2-5.8,2.2-8.3,3.9c-3.6,2.5-5.7,6.6-5.7,11c0,9.7,8.7,14.6,17.4,13.3c12.6-1.9,19.3-12.6,19.3-24.8
		C1016.3,636,1016.1,634,1015.8,632z"/>
	<path fill="#50DEFF" d="M1083.1,630.9c-2.8-11.8-9.2-23.9-14.9-34.4c-1.8-3.3-7.1-1.8-7,1.9c0.2,7.1,1.2,14.3,2.1,21.3
		c0.7,5.4,1.1,11.4-3.2,15.6c-1.1-0.8-1.2-0.7-2.5,0.2c0.2,0.1,0.5,0,0.8-0.1c-7.6,2.5-12.5,10.1-10.3,18.2
		c2.7,9.9,13.1,12.7,21.7,8.8c7.4-3.4,13.5-10.5,14.3-18.7C1084.7,639.3,1084.1,635.1,1083.1,630.9z"/>
	<path fill="#FFFFFF" d="M952.5,631.9c-1.8-3.4-6.3-1.5-6.6,1.8c-0.4,3.3,0.6,6.7,0.5,10.1c0,3.7-1.1,7.2-2.9,10.3
		c-4.2,7.7-12.1,8.8-19.8,6.5c-2.3-0.7-4,2.3-2.3,4c7.3,7.1,18.5,3.8,25.1-2.4C953.6,655.5,957.3,640.7,952.5,631.9z"/>
	<path fill="#FFFFFF" d="M1072.3,549.7c-4.1-9.6-14.7-18.5-25.7-18c-1.2,0-1.9,1.8-0.7,2.4c4.4,2.2,8.5,3.9,12.1,7.3
		c3.7,3.4,6.4,8.1,8.1,12.7c4.1,11.2,0.4,22,0.4,33.4c0,3.4,4.6,3.7,5.7,0.8C1076.4,576.9,1077.1,561,1072.3,549.7z"/>
	<path fill="#FFFFFF" d="M1072.5,607.7c-3.7,0-6.8,3.1-6.8,6.8s3.1,6.8,6.8,6.8s6.8-3.1,6.8-6.8S1076.2,607.7,1072.5,607.7z"/>
	<path fill="#FFFFFF" d="M1012.6,628.4c-1.9-4.4-9.1-1.2-7.6,3.2c1.9,5.8,1.8,11.2-0.9,16.8c-2.1,4.3-6.5,6.3-8.9,10.3
		c-0.2,0.3,0,0.8,0.4,0.9c6.1,2.2,12.4-4.3,15.7-8.7C1016,644.5,1015.5,635.3,1012.6,628.4z"/>
</g>
<g>
	<path fill="#36C5F3" d="M863.8,651.7c-5.4-5.8-14.6-5-21.6-4c-6.4,1-17.2,3.1-20-4.9c-2.5-7.1,6.1-18.3,9.8-23.9
		c4.2-6.5,8.6-12.8,12-19.8c3.8-7.9,6.4-16.4,9-24.7c6.5-20,11.1-41.7,9.6-63c-1.2-17.3-6.1-40.3-24.9-46.5
		c-14.8-4.9-37.1-0.5-43.2,15.7c-6.5,17.5,1.7,38.4,6.5,55.3c6.2,22,12,44.8,6.1,67.5c-5,19.4-18.5,35.8-16.6,56.9
		c1.8,19.3,16.4,28.1,34.2,30.4c16.4,2.1,37.3-3.5,43.5-20.5C870.5,663.6,868.2,656.4,863.8,651.7z"/>
	<path fill="#50DEFF" d="M839.5,482c-5.8-8.7-17.9-11.1-25.6-3.3c-6.9,6.9-6.4,21.1,3.3,25.6c0.1,0,3.4,2.2,2.5,1.3
		c1.1,1,2.1,2,3.2,2.9c1.7,1.4,2.9,4,4.1,6.5c2.9,6.2,3.5,13.9,4.4,20.6c1,7.5,0.6,15.1,0,22.6c-0.6,8.1-3.8,16-4.1,24
		c-0.2,5.6,7.4,7.2,10.2,2.8c4.4-7,5.7-16.9,7.8-24.8c2.3-8.9,3.9-18.2,5.4-27.3C853.5,515.3,849.3,496.7,839.5,482z"/>
	<path fill="#50DEFF" d="M857.9,657.5c-5.7-3.4-13.9-0.4-15.5,6.3c-0.2,0.8-0.2,1.1-0.1,1.2c-0.1,0.1-0.4,0.3-0.9,0.7
		c-0.9,0.8-2.1,1.3-3.1,1.9c-2.9,1.5-6.4,2.5-9.7,3c-6.7,0.9-13.2-0.6-19.9-0.7c-0.1,0-0.2,0.1-0.2,0.2c3.3,8.5,13,12.7,21.4,13.9
		c11.6,1.7,21.4-2.2,30-9.9C865.1,669.5,863.4,660.8,857.9,657.5z"/>
	<path fill="#FFFFFF" d="M821.5,475.5c-3.9,0-7.2,3.3-7.2,7.2c0,3.9,3.3,7.2,7.2,7.2s7.2-3.3,7.2-7.2
		C828.7,478.8,825.4,475.5,821.5,475.5z"/>
	<path fill="#FFFFFF" d="M839.8,490.4c-2.5-3.1-7.4,0.9-5.4,4.2c12.4,20,10.3,42.8,5.2,64.8c-1,4.4,6,6.3,6.8,1.9
		C850.7,537.8,856.2,510.6,839.8,490.4z"/>
	<path fill="#FFFFFF" d="M840.4,671c-10.3,4.3-21.4,4.2-31.9,0.6c-1.6-0.6-2.6,1.6-1.6,2.7c9.7,10.3,24.7,10.4,37,5.1
		C848.7,677.3,845.2,669,840.4,671z"/>
	<path fill="#FFFFFF" d="M851.8,656.7c-9.1,0-9.1,14.1,0,14.1S860.8,656.7,851.8,656.7z"/>
</g>
<g>
	<path fill="#36C5F3" d="M727,637.5c-9.4-4.4-21.8-6.2-29.7-13c-5.7-5-3.2-11.6,3.1-14.1c4.2-1.7,9.1-1.9,13.5-2.5
		c9.3-1.4,18.3-5.3,25.9-10.9c13.6-10.2,20.7-28.3,15-44.7c-5-14.4-21.7-25.6-36.4-18.1c-6.3,3.2-10.3,10.5-13.7,16.3
		c-5.5,9.7-11.4,19.3-18.4,28c-6.8,8.5-16.8,21.3-28.8,14.9c-15.7-8.4-4.8-26.6-0.5-38.1c3.8-10.3,6.3-20.9,7.4-31.8
		c1.8-17.8-2.8-37.2-14.9-50.7c-11.5-12.7-29.2-8.5-38.2,4.5c-11.4,16.4-1.5,38.7,2.6,55.7c5.3,21.8,5.3,44.9,1,66.9
		c-4,20.4-12.9,39.8-10.4,61.1c1.7,14.8,11.3,32.4,28.6,28.6c9.5-2.1,14.3-9.7,15.9-18.8c1.5-8.8-7.1-35.2,9.6-32.5
		c5,0.8,8.7,5.6,11.2,9.4c5.4,8.2,8.1,17.6,14.5,25.3c10.9,13.1,32,18.4,48,14c15.5-4.3,23.7-22.5,14.1-35.9
		C741.7,644.6,734.1,640.9,727,637.5z"/>
	<path fill="#50DEFF" d="M653.4,511.6c-0.8-18.6-5.8-40.2-22.1-30.6c-7.1,4.1-7.8,13.3-3,19.5c7.5,9.5,6.5,21.9,5.5,33.2
		c-0.9,9.8-3.9,22.9,3.3,31.1c0.7,0.8,2.1,0.9,2.9,0.4c9.7-6.1,10.6-22.4,12.5-32.6C653.2,528.7,653.8,520.5,653.4,511.6z"/>
	<path fill="#50DEFF" d="M744.2,550.3c-2.1-6.5-8.6-10.6-15.4-8.7c-7.6,2.1-11.8,11.5-7.5,18.4c3.4,5.5,1.8,12.1-1.5,18.5
		c-4.2,7.8-14.8,9.7-20.8,15.6c-1.9,1.9-1,5.2,1.6,5.9c12.3,3.4,26.4-3.1,35.7-10.6c4.9-3.8,7.9-11.5,9.3-17.3
		C747.5,564.6,746.5,557.5,744.2,550.3z"/>
	<path fill="#50DEFF" d="M726.4,655.7c-6.7,2.6-11.5,3.4-18.6,1.2c-3.2-1-6.4-2.2-9.4-3.5c-2.7-1.2-5.6-3.2-8.6-3
		c-1.5,0.1-2.7,0.9-3.1,2.4c-1.1,3.8,1.3,8,3.3,11.1c2.8,4.4,6.4,7.4,10.7,10c9.6,5.8,23.9,5.9,33.7,0.6
		C744.5,669,737.5,651.5,726.4,655.7z"/>
	<path fill="#50DEFF" d="M632.4,663.3c-8-5.6-6.9-16.4-9-25c-1.1-4.5-6.8-4.5-9.1-1.2c-9,12.8-6.9,35.2,8.6,42.3
		C633.9,684.6,642.3,670.3,632.4,663.3z"/>
	<path fill="#FFFFFF" d="M716.5,667.9c-5.5-0.6-10.4-2.6-15.1-5.3c-3.9-2.2-7.1-6.1-11.4-7.5c-0.8-0.3-1.6,0.4-1.6,1.3
		c0,5.4,5,10.2,9.1,13.2c5.3,3.9,11.4,6.4,17.9,7.4C721.9,678,723.1,668.6,716.5,667.9z"/>
	<path fill="#FFFFFF" d="M730.3,656c-9.7,0-9.7,15,0,15S739.9,656,730.3,656z"/>
	<path fill="#FFFFFF" d="M621,665.8c-3.8,0-6.9,3.2-6.9,6.9s3.2,6.9,6.9,6.9s6.9-3.2,6.9-6.9S624.8,665.8,621,665.8z"/>
	<path fill="#FFFFFF" d="M730.8,541.9c-3.6,0-6.6,3-6.6,6.6s3,6.6,6.6,6.6s6.6-3,6.6-6.6S734.4,541.9,730.8,541.9z"/>
	<path fill="#FFFFFF" d="M744.6,564.9c-0.4-3-1.9-4.2-3-6.8c-0.7-1.6-2.8-0.4-2.6,1.1c0.2,1.1-0.3,1.6-0.4,2.6
		c-0.1,2.1,0.1,4.1,0,6.2c-0.2,4.7-1.8,9-4.2,13c-2.2,3.6-5.6,6.4-9.3,8.5c-3.2,1.8-7.1,2.2-9.9,4.6c-1.9,1.7-0.7,4.6,1.4,5.3
		c4.1,1.5,8.9-1,12.5-3c4.4-2.5,8-6.3,10.8-10.4c2.6-3.8,4.2-8.7,4.7-13.3C745,570,745,567.5,744.6,564.9z"/>
	<path fill="#FFFFFF" d="M633.3,475.2c-4.5,0-8.3,3.8-8.3,8.3c0,4.5,3.8,8.3,8.3,8.3s8.3-3.8,8.3-8.3
		C641.6,479,637.8,475.2,633.3,475.2z"/>
	<path fill="#FFFFFF" d="M645.6,495.8c-1.1-0.9-3.1-0.4-3,1.2c0.2,4.3,1,8.5,1.2,12.8c0.2,4.8,0.3,9.6,0.8,14.4c0.4,3.9,5.9,4,6.2,0
		C651.4,515.5,653,502.2,645.6,495.8z"/>
</g>
<g>
	<g>
		<path fill="#36C5F3" d="M562.7,644.6c-3-10-7.5-19.4-12.4-28.6c-5.7-10.9-8.4-20.7-7.7-33.1c0.9-16.2,6.4-39.8-14.1-46.5
			c-9.1-3-19.2-0.1-25.2,7.4c-8.6,10.7-5.8,27.2-1.9,39.2c5.1,15.3,14.2,28.8,20.9,43.4c7.8,17.2,16.8,48.9-2.7,61.9
			c-17.1,11.4-34.7-6.7-52.2-5.8c-16.8,0.9-30,18-26.5,34.5c3.6,16.8,19,26.4,35.1,28.9c18.2,2.8,39.9-0.7,56.6-8.3
			c15.4-7.1,25.6-21.8,31.1-37.4C570.1,682.3,568.1,662.4,562.7,644.6z"/>
		<path fill="#36C5F3" d="M541.2,497.7c-2.5-9.8-10.3-18.4-20.6-18.6c-17.6-0.2-29.6,15.8-25,32.5c5,18.6,29.6,18.5,40.6,7.7
			C542,513.6,543.2,505.3,541.2,497.7z"/>
	</g>
	<path fill="#50DEFF" d="M523,716.5c-2.1-1.2-3.7-0.9-6.1-0.8c-2.7,0.2-5.5-0.2-8.2-0.4c-5.6-0.4-11.3,0.3-17-0.1
		c-5.1-0.3-10.2-1.7-15.2-2.8c-4.8-1.1-7.4-4.2-11.6-6.1c-6-2.7-16.3,0.3-15.2,8.7c2.2,17,22.4,21.5,36.8,21.3
		c7.8-0.1,15.3-1.8,22.6-4.5c3.4-1.3,6-3.1,8.8-5.5c2.5-2.1,5.4-3.5,6.2-6.8C524.5,718.4,524.1,717.1,523,716.5z"/>
	<path fill="#50DEFF" d="M539.2,614.5c-4.2-6.9-4.9-16.2-4.8-24.1c0.2-10.7,7.2-49.6-14.5-43.6c-9.4,2.6-9,11.3-6.8,19.1
		c2.6,9.3,4.9,18.7,7.6,27.9c2.8,9.6,7,17.3,14.9,23.5C537.5,618.9,540.7,616.9,539.2,614.5z"/>
	<path fill="#50DEFF" d="M521.3,487.7c-6.2,0-11.3,5.2-11.3,11.3s5.2,11.3,11.3,11.3c6.2,0,11.3-5.2,11.3-11.3
		S527.5,487.7,521.3,487.7z"/>
	<path fill="#FFFFFF" d="M522.3,487.8c-6.4,0-6.4,10,0,10S528.7,487.8,522.3,487.8z"/>
	<path fill="#FFFFFF" d="M522.8,545.1c-3.9,0-7.2,3.3-7.2,7.2c0,3.9,3.3,7.2,7.2,7.2s7.2-3.3,7.2-7.2
		C530,548.4,526.7,545.1,522.8,545.1z"/>
	<path fill="#FFFFFF" d="M543,618.6c-4.8-7.4-8.1-14-9.7-22.8c-0.9-4.7-0.9-9.7-1-14.5c-0.2-4.8,1.3-9.6-0.5-14.2
		c-0.5-1.3-2.3-1.8-3-0.4c-2.5,4.4-1.7,9.7-2,14.6c-0.4,5.4,0,10.7,0.7,16.1c1.2,8.5,4.6,18.7,11.1,24.6
		C540.9,624.1,544.8,621.4,543,618.6z"/>
	<path fill="#FFFFFF" d="M453.3,705.2c-3.4,0-6.3,2.9-6.3,6.3s2.9,6.3,6.3,6.3s6.3-2.9,6.3-6.3S456.7,705.2,453.3,705.2z"/>
	<path fill="#FFFFFF" d="M519.3,720c-7.5,6.5-18.8,7.5-28.3,8c-4.8,0.3-9.5,0.5-14.3,0.2c-5.1-0.3-9.3-2.1-14.1-3.5
		c-0.7-0.2-1.3,0.6-0.9,1.2c5.7,8.3,20.3,9.3,29.3,9.5c11.5,0.2,24.5-2.7,33.2-10.6C527.5,721.9,522.6,717.1,519.3,720z"/>
</g>
<g>
	<g>
		<path fill="#36C5F3" d="M409,550.9c-11.8-15.2-41.4-16.8-49.3,3.1c-7.3,18.4,4,36.3,5.7,54.5c1.9,20.3-6.6,40.3-4.1,60.5
			c1.9,15.2,13.8,27.4,29.6,24.3c18.4-3.6,12.6-26.2,12.7-38.9c0-10.2,5.2-20.2,9.1-29.3c3.6-8.4,6.8-16.9,7.9-26
			C422.6,582.3,419.6,564.5,409,550.9z"/>
		<path fill="#36C5F3" d="M402.6,495.2c-2.6-31.6-60.4-20.7-50,13.8c5.6,18.6,28.6,18.3,40.9,7.4
			C399.2,511.3,403.2,502.8,402.6,495.2z"/>
	</g>
	<path fill="#50DEFF" d="M407.5,561.8c-5.2-9.2-16.6-17.6-27.5-14.9c-7,1.7-11.6,11.3-7.1,17.6c2.4,3.4,5.3,5.5,8.5,7.9
		c-0.2-0.1-0.7-0.6-0.4-0.1c7.2,7.5,9.7,18.5,10.4,28.5c0.7,10.9-0.1,22.7-1,33.5c-0.3,3.2-1,6.5,1.7,8.8c0.6,0.5,1.2,0.5,1.9,0.2
		c4.2-1.8,5.6-11.1,7.1-15.1c4.7-12.4,11.6-25.9,12.8-39.3C414.6,579.3,412.2,570,407.5,561.8z"/>
	<path fill="#FFFFFF" d="M379,545.4c-4,0-7.3,3.3-7.3,7.3c0,4,3.3,7.3,7.3,7.3s7.3-3.3,7.3-7.3C386.3,548.7,383,545.4,379,545.4z"/>
	<path fill="#FFFFFF" d="M394.3,557.9c-1.4-0.9-3.1,1.2-1.8,2.3c8.7,7.5,11.5,19.8,11.2,30.7c-0.2,6.7-1.9,13.2-3.5,19.6
		c-1.4,5.6-3.8,11.4-3.9,17.2c0,2.3,3.4,3.4,4.5,1.2c3-6.2,4.2-13.8,5.9-20.5c1.7-6.9,2.6-14.1,2.5-21.3
		C409.1,575.1,404.3,564.7,394.3,557.9z"/>
	<path fill="#FFFFFF" d="M376.5,669.9c-3.1,0-5.6,2.6-5.6,5.6s2.6,5.6,5.6,5.6s5.6-2.6,5.6-5.6S379.6,669.9,376.5,669.9z"/>
	<path fill="#50DEFF" d="M395.7,494.5c-0.3-8.7-9.1-16.2-17.2-14.4c-1.5-0.1-3,0.1-4.4,0.5c-5.8,1.9-8.5,6.9-8.4,12.1
		c-0.9,4.5,0.1,8.9,4,11.8c5,3.6,12.6,4.7,17.9,1.9C392.3,504.5,395.9,500.3,395.7,494.5z"/>
	<path fill="#FFFFFF" d="M382.3,480.7c-3.7,0-6.8,3.1-6.8,6.8c0,3.7,3.1,6.8,6.8,6.8s6.8-3.1,6.8-6.8
		C389.1,483.8,386,480.7,382.3,480.7z"/>
</g>
<g>
	<path fill="#36C5F3" d="M311.9,624.4c-0.1-10.9,5.6-21,5.6-32c0-17.5-12.5-31.9-28.4-37.3c-20.7-7.1-37.2,7.6-55.4,13.9
		c-7.6,2.6-14-0.7-16.7-6.1c-0.5-21.3,9.8-41.7,6.9-63.1c-2.3-16.4-11.1-31.7-27.1-37.8c-13.5-5.1-29.9,0.9-36.5,13.6
		c-8.7,16.6,2.9,35,11.1,49c10.5,17.9,16.3,38.2,17.6,58.9c0.6,9.9,0,19.9-1.6,29.7c-1.8,10.9-5.6,21.4-7.9,32.2
		c-3.4,16.2-0.5,35,14.8,44c14.3,8.4,33.4,1.2,37.8-14.5c5.9-21-8.2-42-5.3-63.2c1.3-9.8,7.8-17.8,17.1-20.9
		c10.5-3.5,21.6,2.9,25.1,12.9c3.4,9.6-0.2,20.4-3,29.6c-3.1,10.5-6,21-4.9,32.1c1.8,16.7,14.9,30.2,32.3,28.2
		c19.4-2.2,25.2-21.6,23-38.3C315.1,644.8,312,634.9,311.9,624.4z"/>
	<path fill="#50DEFF" d="M303.9,579.8c-6.2-12-20.9-16.4-33.4-14.8c-3.8,0.5-7.1,2.3-8.2,6.3c-1.1,4.2,1.4,9.7,5.9,10.5
		c4.5,0.8,9.8,1,14,2.9c5.4,2.4,7,10.1,8.6,15.3c2.9,9.4,2.2,20,6.3,28.9c0.4,0.8,0.8,1.6,1.6,2c2.2,1.1,3.4-2.5,3.9-3.9
		C307.3,613.1,311,593.4,303.9,579.8z"/>
	<path fill="#50DEFF" d="M222.9,649.9c-1.2-6.8-3.7-13.4-6.4-19c-0.3-0.7-1.1-2-1.9-3.4c-1.7-3.1-6.4-2.6-7.4,0.8
		c-1.3,4.6-1.9,9.4-2.8,14.1c-0.8,4.4-1.8,8.8-3.8,12.9c-2,4-6.4,5.8-8,9.9c-1.5,3.8-1.1,8.1,0.9,11.6c4.6,7.9,15.1,8.8,21.6,2.8
		C223.7,671.7,224.9,660.6,222.9,649.9z"/>
	<path fill="#50DEFF" d="M212.8,498.8c-2.5-13.3-18.8-31.7-33.8-25.9c-5.5,2.1-10.6,9.4-6.2,15.1c3.1,4,8.2,7.4,10.9,9.8
		c3.6,3.4,5,6,7.5,10c6,9.6,8.1,24.2,5.8,35.2c-1.2,5.9,8,8.2,8.9,2.5c1.2-8,5-15.4,6.6-23.3C214,514.3,214.2,506.8,212.8,498.8z"/>
	<path fill="#FFFFFF" d="M184.5,468c-4.2,0-7.8,3.5-7.8,7.8c0,4.2,3.5,7.8,7.8,7.8s7.8-3.5,7.8-7.8C192.3,471.5,188.7,468,184.5,468
		z"/>
	<path fill="#FFFFFF" d="M209.2,502.3c-0.8-6.3-3.1-17.1-9.9-19.6c-1.1-0.4-2.6,0.7-2.4,1.9c0.4,2.7,1.7,4.5,3,6.8
		c2.1,3.8,3.2,8.2,3.6,12.5c0.8,9.1-2,17.7-5.1,26.1c-1.5,4.1,5,5.9,6.6,1.8C208.5,522.5,210.4,512.3,209.2,502.3z"/>
	<path fill="#FFFFFF" d="M282.8,563.7c-8.8,0-8.8,13.6,0,13.6S291.5,563.7,282.8,563.7z"/>
	<path fill="#FFFFFF" d="M298.8,578.3c-1.2-1.2-3.9,0-3.1,1.8c2.9,7.3,4.6,14,4.1,21.9c-0.5,8-2.7,15.6-3.8,23.5
		c-0.4,2.9,4.3,3.4,5,0.7c2-8.4,3.6-17.3,4.2-25.9C305.7,592.5,304.6,583.8,298.8,578.3z"/>
	<path fill="#FFFFFF" d="M201,670.9c-3.5,0-6.4,2.9-6.4,6.4s2.9,6.4,6.4,6.4s6.4-2.9,6.4-6.4S204.5,670.9,201,670.9z"/>
	<path fill="#FFFFFF" d="M225.6,646.7c-1.2-3.8-7.2-2.2-6,1.7c1.5,4.9,1.7,9.9,0.6,14.9c-1.1,5.1-4.4,8.7-6.8,13.2
		c-0.2,0.5,0,1,0.5,1.1c5,1.7,9.3-6.3,10.8-9.9C227.4,660.8,227.8,653.8,225.6,646.7z"/>
</g>
<g>
	<path fill="#36C5F3" d="M294.8,879.7c-9.1-54.4-80.7-88.6-125.2-51.8c-11.6,9.6-20.1,22.8-24.3,37.2c-9.8,33.5,7.1,80.4,42.8,90.5
		c34.1,9.7,74.3-0.1,95.4-29.4C292.8,913.2,297.5,895.7,294.8,879.7z M242.9,916.8c-18.1,4.3-42-1.2-49.4-20.3
		c-6.7-17.6,1.5-42.9,19.4-47.4c21.2-5.4,42.8,0.8,51.9,20.1C274.2,889.1,265,911.5,242.9,916.8z"/>
	<path fill="#50DEFF" d="M214.2,926.9c-8.3-0.7-15.7-1.5-23.2-5.4c-7.6-3.9-14.7-10-19.4-17.2c-4.9-7.4-6.1-17.7-6.1-26.3
		c0-4.4-0.3-9,0.5-13.4c0.8-4.7,3.4-8.8,3.9-13.6c0.2-2.4-2.6-3.5-4.5-2.6c-4.6,2.4-7.1,7.5-9.3,12c-2.6,5-5.2,9.9-6.1,15.4
		c-1.9,12.6,0.3,24.6,5.7,36c5.3,11.3,13.1,20.1,23.6,26.7c9.7,6.2,23.3,10.9,34.9,9.7C227.8,946.9,228.1,928,214.2,926.9z"/>
	<path fill="#FFFFFF" d="M180.5,932.1c-19.1-11.2-23.7-33.6-24.6-54c-0.1-1.4-2.2-1.8-2.5-0.3c-3.9,22.9,3.2,47.6,23.6,60.3
		C180.8,940.4,184.3,934.4,180.5,932.1z"/>
	<path fill="#FFFFFF" d="M202.3,933.4c-9.4,0-9.4,14.6,0,14.6S211.7,933.4,202.3,933.4z"/>
</g>
<g>
	<g>
		<path fill="#36C5F3" d="M471,846.8c-8.5-17.2-24.3-28.9-42.9-33.1c-10.4-2.4-21.4-2.1-32-1.2c-7.7,0.7-16.2,3-24.4,3.3
			c-5.1-15-21.2-21.1-35.8-14.5c-16.1,7.3-16.2,29-12.6,43.3c2.5,9.9,6.7,19.4,9.7,29.1c3.4,11.1,5.9,22.6,6.5,34.2
			c1.3,22.5-9.6,42.1-12.3,63.9c-2.1,17.3,1.3,36.8,19.3,43.6c16.2,6.1,33.2,2,38.1-15.6c4.9-17.8-15.4-41.4-1.5-56.5
			c6.2-6.8,18.3-5.7,26.4-5.2c10.4,0.6,20.4,1.7,30.8,0.2c19.1-2.6,31.4-18.9,36.5-36.3C482.5,883.7,479.3,863.5,471,846.8z
			 M406.3,911.3c-21.3,2.5-46.1-10-49.6-32.9c-2.2-14.3,3.9-28.8,15.3-35.9c0.5-1.2,1.5-2.3,3-2.9c21.4-7.5,52.3,5.4,60.4,27.2
			C443.6,888.8,428.7,908.7,406.3,911.3z"/>
		<path fill="#36C5F3" d="M375,839.7c-1.6,0.6-2.5,1.6-3,2.9c-11.3,7.1-17.5,21.6-15.3,35.9c3.5,22.9,28.3,35.4,49.6,32.9
			c22.5-2.7,37.3-22.6,29.1-44.5C427.3,845.1,396.4,832.2,375,839.7z M426.3,887.9c-3.3,7.8-11.6,11.6-19.3,13.3
			c-16.2,3.6-34.2-5.7-39.7-21.3c-4.6-13.2,2.2-26,15.4-30.2c14.8-4.7,32,3.1,40.7,15.4C428,871.6,429.4,880.6,426.3,887.9z"/>
	</g>
	<path fill="#50DEFF" d="M463.8,852.9c-0.8-1.4-1.6-2.8-2.5-4.1c-10.1-14.9-25.7-22.2-43.2-24.4c-6.2-0.8-13.6-1.4-19,2.4
		c-1.1,0.8-1.2,2.3,0,3.1c3.8,2.4,8,2.8,12.3,3.9c13.2,3.4,23.9,7.8,30.8,20.2c7.6,13.6,10.5,32.5,3.7,47.1
		c-2.1,4.5-6.6,8.3-7.5,13.2c-1.3,6.9,4.2,13.6,11.6,11.6c11.4-3,18.5-21.5,20.5-31.9C473.2,880.1,470.7,865.3,463.8,852.9z"/>
	<path fill="#50DEFF" d="M363.9,981.5c-0.3-0.1-1.2-0.8-1.9-1.5c-0.1-0.1-1-2.7-1.1-3.2c-1.4-4.8-1.8-10.2-2-15.2
		c-0.4-10.5,0.7-20.9,0.7-31.4c0-10.2-1.3-20.4-3.4-30.3c-1.9-8.9-4.8-18.5-11-25.4c-0.4-0.4-1-0.1-1.1,0.4
		c-0.4,5.1,0.1,10.5,0.6,15.7c0.6,5.4,1,10.7,1,16.1c0.1,11.5-1.7,22.8-4.7,33.9c-3.2,12.1-6.3,23.5-4.7,36.1
		c1.7,12.8,7.5,25,20.9,28.5C372.7,1009.3,379.1,986,363.9,981.5z"/>
	<path fill="#FFFFFF" d="M351.4,922.7c0.1-1-1.3-1.5-1.6-0.4c-2.6,11.9-8.5,22.9-11.3,34.8c-2.6,11-4.1,24.3,0.6,35
		c1.5,3.5,6.5,0.9,5.8-2.5c-1.1-5.8-2.2-11.2-2.1-17.1c0.1-5.8,1.3-11.6,2.6-17.3C348,944.4,349.9,933.7,351.4,922.7z"/>
	<path fill="#FFFFFF" d="M356,992.6c-9.2,0-9.2,14.2,0,14.2S365.2,992.6,356,992.6z"/>
	<path fill="#FFFFFF" d="M449.3,908.6c-3.4,0-6.2,2.8-6.2,6.2s2.8,6.2,6.2,6.2s6.2-2.8,6.2-6.2S452.6,908.6,449.3,908.6z"/>
	<path fill="#FFFFFF" d="M460.6,857.6c-2.9-5.8-6.3-11.4-11-16c-4.9-4.9-11.9-7.3-18.5-8.7c-0.3-0.1-0.4,0.3-0.2,0.4
		c5.1,3.2,10.5,5.8,14.8,10c4.1,4,7.1,9.8,9.2,15c4,10.4,5.6,23.8,1,34.2c-2.4,5.4,5.6,8.6,7.4,3.1
		C467.3,882.8,466.6,869.7,460.6,857.6z"/>
</g>
<g>
	<g>
		<path fill="#36C5F3" d="M637.1,996.7c7.9-13.3-0.2-31.8-2.7-45.7c-6.8-37.9-2.4-76.4,7.9-113.2c3-10.6,4.7-25.2-5.8-32.5
			c-9.7-6.7-23.5-3.8-30.1,5.9c-1.5,2.2-2.6,4.6-3.5,7c-20.1-9-44-8.2-63.7,2.2c-22.7,12-35.8,37.9-35.8,63
			c0,25.8,15.8,49.1,42.2,52.6c14.5,1.9,25.3-2.9,38.5-7.9c2.4-0.9,5-1.8,7.4-0.9c1.9,0.8,3.2,2.6,3.8,4.6c1.3,4,0.6,8.8-0.4,12.8
			c-3.5,13.6-5.4,27.8-1.7,41.6c2.2,8.2,7.6,16.3,15.3,20.3c8.1,4.1,18.2,1.2,24.6-4.8C634.8,1000.1,636.1,998.5,637.1,996.7z
			 M582.9,900.9c-15,0.2-30.1-7.8-30.4-24.4c-0.3-14.2,10.5-25.9,24.8-26.8C608.1,847.6,618.6,900.4,582.9,900.9z"/>
	</g>
	<path fill="#50DEFF" d="M570.9,820.3c-20.6-2.4-41.6,13.7-52.3,30.2c-5.8,9-7.2,21-7.2,31.5c-0.1,9.8,1.6,21.2,9,28.2
		c1.4,1.3,3.2,1.5,4.9,0.6c-2.2,1.1,1.4,0.5,1.9,0.5c0.1,0,0.2-0.1,0.2-0.2c-0.2-0.6-0.4-1.4-0.5-2.2c0.7-1.7-0.1-3.5-0.3-5.5
		c-0.4-4.2-0.1-8.3-0.1-12.5c0.1-8.9,2.6-17.3,5.9-25.6c2.7-6.9,8.6-12.1,14.4-16.5c5.9-4.5,13.5-8.3,21-6.7
		c5.9,1.2,12-1.7,13.6-7.7C583.7,826.7,578,821.1,570.9,820.3z"/>
	<path fill="#50DEFF" d="M621.9,812.2c-8.4,1.8-8.3,13.8-8.8,20.3c-0.6,8.6-1.2,16.9-1,25.5c0.2,8.5-0.2,17-0.2,25.4
		c0,7.6-0.6,17.2,3.5,23.9c1.9,3.1,7.4,2.9,8.1-1.1c1.3-7.1,0.4-14.4,0.8-21.6c1-18.4,8.8-35.6,9.5-53.9
		C634.1,823.8,631.9,810.1,621.9,812.2z"/>
	<path fill="#50DEFF" d="M634,972.7c-2.1-8.2-6.5-16.1-11.2-20.2c-0.9-0.8-2.3-1.2-3.4-0.6c-1,0.6-1.3,1.7-1.6,2.8
		c-1.1,4.5-1.7,9.1-1.4,13.8c0.2,3.7,1.4,8.1-0.8,11.5c-1.4,2.2-3.8,3.1-4.9,5.8c-3.7,9.5,6.4,17.4,15.1,13.3
		C635.4,994.6,636.7,983.3,634,972.7z"/>
	<path fill="#FFFFFF" d="M540.7,834.7c-6,3.9-12,7.8-16.9,13c-5.2,5.4-7.9,12.2-9.5,19.3c-3.4,15.1,0,29.7,8.2,42.5
		c1.1,1.7,3.4,0.2,2.6-1.5c-5.5-11.8-6.6-26.4-3.6-39c3.1-13.1,12.5-20.4,23.3-27.5C549,838.9,545,831.9,540.7,834.7z"/>
	<path fill="#FFFFFF" d="M560.5,823c-9.7,0-9.7,15,0,15S570.2,823,560.5,823z"/>
	<path fill="#FFFFFF" d="M633,832.8c-0.3-5.4-1.3-13.5-7.2-15.7c-0.2-0.1-0.6,0.1-0.5,0.4c0.6,5.8,2.5,11.1,2.2,17.1
		c-0.4,7.6-3.1,14.7-3.8,22.2c-0.2,2.3,3.4,3.3,4.5,1.2C631.8,850.6,633.4,841,633,832.8z"/>
	<path fill="#FFFFFF" d="M616.8,986.1c-8.3,0-8.3,12.9,0,12.9S625,986.1,616.8,986.1z"/>
	<path fill="#FFFFFF" d="M628.6,964.4c-1.1-2.5-5.1-0.3-3.8,2.2c2.9,5.7,3.1,12.1,0.8,18c-0.6,1.5,1.9,2.6,2.6,1.1
		C631.7,978.8,631.7,971.5,628.6,964.4z"/>
</g>
<g>
	<path fill="#36C5F3" d="M801.2,819.5c-13.9-7.8-30.7-3-44.6,2.1c-7.9,2.9-15.9,6.1-24.3,7c-5.5,0.6-11.8,0.3-14.1-5.6
		c-2.9-7.6,1-15.2-8.6-19.4c-6.1-2.6-13.7-1-19,2.6c-24.7,16.7-7,56.5-1.1,77.6c3.2,11.2,2.6,22.6-0.5,33.7
		c-2.8,9.9-6.6,19.1-7.1,29.5c-0.8,18.1,13.4,30.4,30.7,30.8c7.6,0.2,16.3-2.9,21.9-8c6.9-6.2,7.7-13.9,7.6-22.7
		c-0.2-22-16.8-38.5-18.3-60.3c-0.6-9.4,2.7-18.3,9.2-25c8.5-8.7,20.2-5.7,30.2-1.9c15.2,5.8,36.9,14.4,48.3-3
		C820.5,843.2,815.1,827.3,801.2,819.5z"/>
	<path fill="#50DEFF" d="M808.1,843.5c-3.3-13-17.2-18.5-29.4-18.9c-6.8-0.2-13.7,2.1-19.8,4.7c-3.8,1.6-7.3,3.7-11.2,5.2
		c-2.8,1.1-5.2,2.3-7.4,4.4c-0.4,0.4-0.2,1,0.3,1.2c13.3,4,39.6-7.6,45.6,9.4C791,863.2,811.7,857.8,808.1,843.5z"/>
	<path fill="#50DEFF" d="M724.3,924.2c-4.9-11.6-5.9-24.1-10-35.9c-1.7-4.9-8.2-4.8-9.9,0c-3.8,10.6-2.5,22.3-0.5,33.1
		c1.6,8.7,3.2,19.9-1.6,27.4c-9.2,14.1,14.1,27.8,22.5,13.2C731.8,949.9,729.5,936.6,724.3,924.2z"/>
	<path fill="#FFFFFF" d="M702.5,953.4c-3.6,0-6.6,3-6.6,6.6s3,6.6,6.6,6.6s6.6-3,6.6-6.6S706.1,953.4,702.5,953.4z"/>
	<path fill="#FFFFFF" d="M726.5,926.2c-1-1.5-3.5-0.6-3,1.3c2,7.2,7.8,30.5-6.4,29.1c-6.5-0.6-6.2,10.6,1.3,9.5
		C735.8,963.6,733.7,936.9,726.5,926.2z"/>
	<path fill="#FFFFFF" d="M798.5,830c-5.4-3.3-11.2-5-17.5-5.4c-5.5-0.4-12.9,0-17.3,3.7c-0.4,0.3-0.1,1,0.3,1.1
		c4.6,1.6,10.2,0.7,15.1,0.9c5.7,0.2,11.4,2,16.3,5C798.8,837.3,801.8,832,798.5,830z"/>
	<path fill="#FFFFFF" d="M803.5,839.1c-7.7,0-7.7,11.9,0,11.9S811.2,839.1,803.5,839.1z"/>
</g>
<g>
	<path fill="#36C5F3" d="M908.2,845.4c4.6,1.8,6.6,8.1,9.5,11.8c4.8,6.1,11.2,10.5,19.1,11c15.4,0.9,27.9-9.3,30.7-24.3
		c7-38-44.6-52.5-72.9-48c-32.5,5.2-58.4,39.4-50.9,72.1c3.4,15,14.2,26.6,28.4,32c14.4,5.4,41.5,4.1,42.6,25.1
		c0.2,4.5-2.6,8-6.2,10.2c-3.9,2.4-7.9,0.5-11.2-1.8c-6-4-10.7-10.3-18.5-10.9c-14.9-1.2-21,15-15.4,27
		c12.8,27.7,53.5,25.1,76.4,13.8c29.1-14.4,33.2-53.9,7.9-74.2c-12.7-10.1-28.4-8.7-43.1-13.4c-8.7-2.8-15.1-9.7-13.3-19.2
		c1-5.4,7.4-10.5,12.5-11.6C905.4,844.7,906.9,844.9,908.2,845.4z"/>
	<path fill="#50DEFF" d="M949.1,904.3c-3.4-5.2-10.1-7.4-15.7-4.1c-5,2.9-7.8,10.7-4.1,15.7c8,10.9,0.9,25.3-9.2,32.1
		c-6.2,4.2-13.5,5.3-20.8,4c-3.5-0.6-6.9-1.9-10.2-3.2c-3.6-1.4-6.4-3.8-10.3-4c-2.2-0.1-3.5,2.1-3.1,4c1.9,9,15.7,13.7,23.5,15.2
		c10.1,2.1,20.6,0.5,29.9-3.7C949.3,951.5,962.1,924,949.1,904.3z"/>
	<path fill="#50DEFF" d="M944.2,813.2c-9.7-6.8-22.5-9.4-34.3-9.5c-20.6-0.2-43.4,11.6-50.4,31.8c-0.6,1.7,1.6,2.6,2.7,1.6
		c12.2-10.7,26.2-18.2,42.8-16.7c9.6,0.9,18.4,5.3,24.2,13.1c5.3,7.1,5.2,21.3,14.7,23.9c18.5,5.1,17.3-20.6,12.1-30.8
		C953.2,821,949.1,816.6,944.2,813.2z"/>
	<path fill="#FFFFFF" d="M949.5,824.7c-7.3-10.1-18-16.5-30.3-18.7c-7.3-1.3-14.8-0.7-22,0.7c-6.5,1.3-12,4.4-17.1,8.4
		c-0.4,0.3,0.1,0.8,0.5,0.6c5-2.5,11.8-3.5,17.3-3.8c6.7-0.4,12.9-0.7,19.6,0.6c10.1,2.1,19.3,7.7,25,16.4
		C945.3,833.3,952.6,828.9,949.5,824.7z"/>
	<path fill="#FFFFFF" d="M949.8,835.6c-4.3,0-7.9,3.6-7.9,7.9c0,4.3,3.6,7.9,7.9,7.9s7.9-3.6,7.9-7.9
		C957.6,839.2,954,835.6,949.8,835.6z"/>
	<path fill="#FFFFFF" d="M943.7,930.8c-3.3,9.1-7.2,17-16.3,21.4c-9.5,4.6-20.5,5.9-30.9,6.2c-0.8,0-1.1,1.1-0.4,1.5
		c10.2,5.5,22.8,3.2,33.1-1.2c11.6-4.9,16.9-14.6,21.2-26C952,928.5,945.2,926.7,943.7,930.8z"/>
	<path fill="#FFFFFF" d="M946.3,907.1c-3.7,0-6.9,3.1-6.9,6.9s3.1,6.9,6.9,6.9s6.9-3.1,6.9-6.9S950,907.1,946.3,907.1z"/>
</g>
<g>
	<path fill="#36C5F3" d="M1085,878c-3.2-1.9-9.7-1.9-16.1-2.3c-4-0.2-6.5-4.5-4.7-8.1c7.8-15.4,13.3-30.7,14.1-48.7
		c0.8-18.1-7.6-39.9-25.3-44.2c-0.4-0.2-0.8-0.4-1.2-0.6c-16.3-4.8-31,4.3-36.5,19.8c-2.9,8.3-1.9,17.5-0.7,26
		c1.7,11.7,4.1,23,4.2,34.9c0.1,5.4-0.5,11.2-1.4,17.3c-4.5,3.5-11.9,2-17.2,3.1c-9.7,2-16.1,8.5-17.4,18.4
		c-1.2,9.2,7.2,16.5,15.6,17.5c4.4,0.5,8.6,0.1,12.8-0.9c-2.6,22-1,43.3,18,57.2c12.6,9.3,31.2,11.7,42.8-0.5
		c5.1-5.4,5.4-13,2.5-19.4c-3.2-7.3-13.3-8.4-19.7-11.1c-9.1-3.9-11.1-12.7-9.7-22.5c0.7-4.9,5.7-7.9,10.3-6.3
		c4.2,1.5,8.4,3.1,12.6,3.9c9.8,2,21.1,0,25.2-10.4C1097,892.1,1093.2,882.9,1085,878z"/>
	<path fill="#50DEFF" d="M1064.5,796.9c-3.1-7.8-11-16.1-19.9-15c-7.2,0.9-13.9,6.9-11.3,14.9c1.6,5.1,5.5,9,7.1,14.3
		c4.8,15.4,7.1,33,4.4,49c-0.7,4-0.1,5,2.1,8.2c0.7,0.9,1.7,1.3,2.8,0.7c0.4-0.2,0.9-0.3,1.3-0.5c1.8-0.4,3.2-2,3.7-3.7
		c3.6-11.8,10.3-22.3,12.5-34.5c1.9-10.7,1.2-21.8-2.1-32.1C1064.9,797.9,1064.7,797.4,1064.5,796.9z"/>
	<path fill="#50DEFF" d="M1078.9,894.3c-3.4,0.7-7.1,0.2-10.4-0.8c-4.9-1.6-8.3,6.2-3.6,8.4c5.4,2.6,10.6,3.1,16.4,1.3
		C1087.2,901.5,1084.8,893.2,1078.9,894.3z"/>
	<path fill="#50DEFF" d="M1062.8,947.4c-7.3-1.3-12.4-3.7-16.2-10.3c-4.2-7.4-4.4-16-7.6-23.7c-1.9-4.5-7.8-3-10.1,0
		c-7.3,9.7-4.8,25.5,0.5,35.4c5.7,10.7,18.2,19.5,30.5,19.3C1071.6,968,1074.9,949.5,1062.8,947.4z"/>
	<path fill="#FFFFFF" d="M1047.6,958.6c-7-2.6-14-5.8-16.4-13.3c-1.9-6-1.6-12.5-4.3-18.2c-0.4-0.9-1.6-0.7-2.1,0
		c-4.8,6.7-1.7,16.8,2.1,23.3c4.1,7,12,10.4,19.5,12.3C1049.2,963.5,1050.2,959.6,1047.6,958.6z"/>
	<path fill="#FFFFFF" d="M1061,951.6c-3.5,0-6.4,2.9-6.4,6.4s2.9,6.4,6.4,6.4s6.4-2.9,6.4-6.4S1064.5,951.6,1061,951.6z"/>
	<path fill="#FFFFFF" d="M1048,780.9c-2.8,0-5.1,2.3-5.1,5.1c0,2.8,2.3,5.1,5.1,5.1s5.1-2.3,5.1-5.1
		C1053.1,783.2,1050.8,780.9,1048,780.9z"/>
	<path fill="#FFFFFF" d="M1058.2,794.8c-1.2-1.3-3.2,0.1-2.9,1.7c1.8,8.4,4.5,16.1,5.3,24.7c0.8,9.2-1.4,18.3-4,27.1
		c-1,3.3,4,4.6,5.2,1.4C1067.2,833.8,1070.7,808.4,1058.2,794.8z"/>
</g>
<g>
	<path fill="#36C5F3" d="M1257.1,882.4c-1.7-17.7-6.1-37.2-14.9-52.7c-6.4-11.3-25.6-27.7-36.8-12.7c-13,17.4,3.9,37.5,10.3,53.7
		c4,10.2,3.5,21.4,0,31.6c-4.6,13.6-17,13.9-29,10.2c-14.5-4.5-11.7-28.7-9.9-39.7c2.1-13.2,5.1-26,3.1-39.5
		c-3.4-23.1-25.1-35.5-46.4-26.1c-9.5,4.2-15.4,13.8-18.2,23.3c-3.3,11.6,0.1,22.9,4.7,33.5c3.6,8.3,7.8,17.2,10.3,26.1
		c2.6,9.3,2.8,18.8,3.6,28.3c0.7,8.9,2.8,18.2,8.8,25.1c12.7,14.7,32.6,16.7,50.8,14.7c18.7-2,36.4-9.8,49.1-23.8
		C1255.8,920.2,1258.8,901,1257.1,882.4z"/>
	<path fill="#50DEFF" d="M1175.3,914.2c-0.9-1.9-2.3-3-4.1-4.1c-20.3-12-1.8-42.1-2.2-59c-0.3-13.5-5.6-30.5-19.9-34.9
		c-7.9-2.4-15.8,5.6-13.5,13.5c4.1,13.7,7.2,26.8,9.1,41c1.8,13,3.6,27.1,11.7,37.9c3.6,4.9,11.3,12.5,17.9,9.2
		C1175.7,917.2,1175.9,915.5,1175.3,914.2z"/>
	<path fill="#50DEFF" d="M1249.6,870.9c-0.6-5.7-1.8-11.2-3.4-16.3c-3.6-11.2-9.8-22.8-20.1-29c-7.8-4.7-20.5,3.2-16.6,12.8
		c3.3,8.1,8.3,15.2,12.4,22.9c2.8,5.4,5,11.6,7.1,17.4c2.4,6.5,3.3,13.6,2.6,20.5c-1,9.8-5.3,22.1-14.4,26.7c-3.4,1.7-6.3,4-4.6,8.2
		c1.4,3.5,5.4,5.3,8.9,3.5C1244.3,925.3,1252.3,896.2,1249.6,870.9z"/>
	<path fill="#FFFFFF" d="M1148.5,813.3c-3.9,0-7.2,3.3-7.2,7.2c0,3.9,3.3,7.2,7.2,7.2s7.2-3.3,7.2-7.2
		C1155.7,816.6,1152.4,813.3,1148.5,813.3z"/>
	<path fill="#FFFFFF" d="M1166.6,837.8c-1.6-5.6-10.3-3.2-8.7,2.4c2.9,9.9,2.4,19.7,0.6,29.8c-1.8,10.1-3.1,19-0.3,29.1
		c0.1,0.3,0.6,0.4,0.7,0C1161.9,879.4,1172.4,857.9,1166.6,837.8z"/>
	<path fill="#FFFFFF" d="M1242.8,856.2c-2.9,0-5.3,2.4-5.3,5.3c0,2.9,2.4,5.3,5.3,5.3s5.3-2.4,5.3-5.3
		C1248,858.6,1245.6,856.2,1242.8,856.2z"/>
	<path fill="#FFFFFF" d="M1248.5,875.5c-0.4-2.1-4-1.7-3.8,0.5c1.2,16.4,0,36.2-13.4,47.9c-3.1,2.7,2.1,7.4,4.7,3.6
		C1246.7,912,1251.9,894.3,1248.5,875.5z"/>
</g>
<g>
	<path fill="#36C5F3" d="M406.8,1088.7c-18.4-0.8-28.4,15.3-33,31c-3.2,10.8-4.9,21.7-9.6,32c-3.1,6.8-9.6,16.9-16.4,20.4
		c-12.4,6.5-13.1-21.9-13.6-28.5c-0.8-8.7-3.3-17-7.2-24.8c-7.3-14.5-21.2-24.2-37.3-25.6c-14.9-1.3-30.6,6.9-36.3,21.1
		c-6.7,16.7-1,34.4,9.4,48.1c5.5,7.2,12.2,13.3,19,19.1c9.1,7.8,14.2,15.2,18.2,26.5c5.9,16.6,6.5,35.3,25.5,42
		c15.2,5.4,33.8-3,42.6-15.6c5.3-7.6,7.5-16.5,10.2-25.3c3.4-11,8.9-21.1,15.3-30.5c11.5-16.8,25.5-31.4,31.4-51.4
		C429.6,1112.2,426.6,1089.6,406.8,1088.7z"/>
	<path fill="#50DEFF" d="M326.1,1163.6c-8.5-9.5-5.8-24-10.3-35.3c-5.9-14.9-21.2-25.6-37.4-20c-15,5.1-9,26.5,6.5,23.6
		c1.8-0.3,6.7-0.8,8.9,0.9c3.8,3,5.9,7.7,7.7,12.1c4,9.9,7,21,14.8,28.7C322.6,1179.9,332.1,1170.3,326.1,1163.6z"/>
	<path fill="#50DEFF" d="M352.3,1224c-0.4,0.3-0.7,0.7-0.9,1.2c-0.1,0.2-0.4,1.1-0.5,1.1c-0.6,0-1.1,0.5-0.8,1.1c0,0.1,0.1,0,0.1,0
		c-0.2-0.5,0.3-1,0.9-0.9c0,0,0.1,0,0.1,0C351.2,1225.4,351.7,1224.7,352.3,1224C352.4,1224,352.3,1223.9,352.3,1224z"/>
	<path fill="#50DEFF" d="M391.5,1112.3c-0.1,9.6-2.1,19-5.9,27.8c-8.9,21-18.7,41.1-28.8,61.5c-2.4,4.8-4.3,9.9-6.2,14.9
		c-1.8,4.6-3.9,10.3-3,15.3c0.2,1,1.6,1.6,2.4,1c5-3.6,8.3-10.5,11.1-15.8c3.7-7,7.7-14,11.8-20.8c5.3-8.7,10.8-17.2,16.7-25.6
		c5.3-7.6,12-14.6,16.3-22.8c6-11.3,10.3-22.8,11.1-35.6C418,1096,391.7,1095.8,391.5,1112.3z"/>
	<path fill="#FFFFFF" d="M280.3,1106.6c-3.2,0-5.9,2.7-5.9,5.9s2.7,5.9,5.9,5.9s5.9-2.7,5.9-5.9S283.5,1106.6,280.3,1106.6z"/>
	<path fill="#FFFFFF" d="M323.9,1157.8c-2-5.1-2-11.2-1.8-16.7c0.2-4.5-1.6-8.8-4-12.5c-4.4-7.2-11.8-12.4-20.1-14.1
		c-4.3-0.8-6,5.1-1.8,6.6c7.2,2.5,13,7.1,16.9,13.7c4.4,7.5,4.7,16.2,8.3,24C322.1,1160.2,324.5,1159.2,323.9,1157.8z"/>
	<path fill="#FFFFFF" d="M402,1126.7c-2.2,11.9-7.5,21.4-14.4,31.2c-3.3,4.6-6.6,9.2-9.5,14.1c-2.5,4.3-5.4,10-5.4,15
		c0,0.7,0.9,1.1,1.4,0.6c3.6-3.4,6.3-8.4,9.3-12.4c3.7-5.1,7.5-10,11.1-15.1c6.9-9.5,13.5-20.4,14.7-32.3
		C409.8,1123.5,402.8,1122.6,402,1126.7z"/>
	<path fill="#FFFFFF" d="M405.3,1104.1c-8.6,0-8.6,13.3,0,13.3S413.8,1104.1,405.3,1104.1z"/>
</g>
<g>
	<path fill="#36C5F3" d="M646.3,1126.1c-6.8-15.6-18.5-27.2-35.6-30.2c-14.1-2.4-29.9,0.6-38.7,12.6c-9.6,13.1-0.2,30.7,7.7,41.8
		c4.9,6.9,10.2,13.6,12.3,21.9c1.9,7.7-3.9,10.2-10.5,10.1c-6-0.1-11.6-3.2-16-7c-10.3-8.8-23.6-25-38.3-13.7
		c-5.2,4-7.1,10.6-10.3,16c-2.6,4.3-9.1,7.8-14.1,7.4c-6.7-0.6-9.4-8.1-10.7-13.9c-3.5-16,3.8-32.2,6.3-47.8
		c1.2-7.5,1.4-15.2-3-21.7c-4.4-6.5-12.9-7.4-19.9-5.1c-16.5,5.3-21.9,31-24.1,45.6c-2.8,18.9-0.1,38.2,8.5,55.2
		c7.5,14.8,21.2,27.1,37.9,29.9c7.3,1.2,14.9,0.4,21.8-2.3c8.4-3.2,12.8-9.3,18.6-15.7c7.6-8.3,21.2,7,27.3,11.2
		c7.9,5.4,17,9.1,26.3,11.1c16.9,3.6,34.5-0.7,47.8-11.6C667.3,1197.3,658.6,1154.5,646.3,1126.1z"/>
	<path fill="#50DEFF" d="M644.8,1141.1c-5.6-13.8-13.8-26.2-26.5-34.3c-6.3-4.1-15.2-1.3-18.9,5c-3.4,5.9-2,16,5,18.9
		c8.8,3.7,12.2,9.6,16.6,18.9c4.1,8.7,7,19.7,6.5,30.3c-0.5,9-5.8,20.1-13.7,24.8c-8.1,4.9-18,3.4-26.8,1.7
		c-5.7-1.1-8.5,5.8-3.9,9.1c10,7.2,24,8.1,35.5,4.3c14.4-4.7,22.8-18.1,28.6-31.3C654.2,1172.7,651.1,1156.6,644.8,1141.1z"/>
	<path fill="#50DEFF" d="M486.4,1112.1c-4.1-3.6-9.6-1.9-11.5,3c-3.8,9.9-5,20.4-5.5,30.9c-0.4,10-0.8,20.8,4.3,29.9
		c3.3,5.8,11.9,0.7,8.9-5.2c-5.3-10.4,1.3-21.4,5.1-30.9C490.9,1132,493.7,1118.6,486.4,1112.1z"/>
	<path fill="#FFFFFF" d="M479.3,1107.4c-2.5,0-4.6,2.1-4.6,4.6c0,2.5,2.1,4.6,4.6,4.6s4.6-2.1,4.6-4.6
		C483.9,1109.5,481.8,1107.4,479.3,1107.4z"/>
	<path fill="#FFFFFF" d="M483.8,1148.6c1.3-6.1,5.6-16.5,1-22c0-0.1-0.1-0.1-0.2,0c-2.8,2.7-3.1,6.3-3.9,10
		c-1.2,5.2-2.7,10.3-3.7,15.6c-1.5,8-2,17.9,2.8,25c1.6,2.4,6,1,4.9-2.1C481.7,1165.8,481.7,1158,483.8,1148.6z"/>
	<path fill="#FFFFFF" d="M608.5,1107.3c-3.9,0-7.2,3.3-7.2,7.2s3.3,7.2,7.2,7.2s7.2-3.3,7.2-7.2S612.4,1107.3,608.5,1107.3z"/>
	<path fill="#FFFFFF" d="M645,1148.1c-2.1-5.8-5.3-11.2-9.4-15.9c-3.4-3.9-8.7-9.9-14.1-10.5c-0.5-0.1-0.7,0.5-0.5,0.9
		c1.9,4.4,6.8,7.6,9.6,11.6c3.4,4.8,6.3,10.1,8.5,15.6c2.4,6.2,3.4,12.9,3.5,19.5c0,3.3-0.4,6.5-0.9,9.7c-0.6,3.1-1.7,6.2-1.3,9.4
		c0.2,1.7,2.2,2.9,3.6,1.5c4.5-4.5,4.7-12.8,5-18.8C649.1,1163.2,647.6,1155.3,645,1148.1z"/>
</g>
<g>
	<path fill="#36C5F3" d="M794.2,1139.1c5.7-3.7,11.2-7.7,16.3-12.3c9.4-8.4,15.6-19.8,16.4-32.4c1.7-27.1-30.6-37.7-51.6-28
		c-11.4,5.2-18.7,17.1-24.1,27.8c-4.1,8.1-7.5,24.1-16.5,28.4c-9,4.3-16.6-8.9-21-14.6c-5.7-7.4-12.7-12.5-21.6-15.4
		c-16.8-5.3-30,6.5-27.3,23.6c3.2,20.5,20,26.9,36.1,35.8c9.8,5.4,16.2,13.6,12.5,25c-3.3,10.2-13.1,17.8-18.7,26.8
		c-9.2,14.8-2.4,31.2,15.2,32.6c7.2,0.6,13.9-3.5,19-8.1c6.6-6,8.8-16.8,16-21.6c9.1-6,17.2,6.9,22.5,12.2
		c6.5,6.6,14.7,11.6,23.8,13.6c14.7,3.2,30.7-5.5,33.4-20.7c2-11.3-4.2-22-12.1-29.5c-9.3-8.8-30.1-13.8-31.3-28.3
		C780.6,1147.2,789.4,1142.3,794.2,1139.1z"/>
	<path fill="#50DEFF" d="M794.4,1181.7c-8.6-6-21.4-10.6-22.9-21.7c-0.8-5.8-9.1-3.8-9.5,1.3c-0.6,7.3,3.4,13.3,7,19.2
		c3.4,5.5,7.4,11.2,10.7,17c1.6,2.8,3.6,6,4.5,9.1c0.9,3.1,0.2,6.5,1.9,9.4c1.7,3.1,4.6,5.4,8,6.4c6.5,1.8,15-2.2,16.3-9.3
		c2.3-12.1-4.8-22.2-13.7-29.6C796,1182.9,795.2,1182.3,794.4,1181.7z"/>
	<path fill="#50DEFF" d="M771.7,1127.6C771.6,1127.6,771.6,1127.7,771.7,1127.6C771.7,1127.7,771.7,1127.6,771.7,1127.6z"/>
	<path fill="#50DEFF" d="M816.1,1081.8c-2.2-9.4-13.8-13.6-21.9-8.9c-7.4,4.3-5.5,10.8-5.3,17.9c0.4,10.3-4,19.2-11.1,26.4
		c-3.5,3.5-12.2,12.7-6.2,17.5c8.6,7,25.1-8,31.1-13.4C813.5,1111.4,819.5,1096.4,816.1,1081.8z"/>
	<path fill="#50DEFF" d="M716.2,1126.1c-2.7-7.2-9.1-12.3-15.3-16.4c-5.6-3.7-14.5-8.7-21-4.5c-1.9,1.2-2.3,4.5,0,5.6
		c5.4,2.6,10.7,4.5,15.8,7.7c5.2,3.3,8.4,7.8,12.5,12.2C711.3,1134.1,717.9,1130.6,716.2,1126.1z"/>
	<path fill="#50DEFF" d="M723.3,1203.2c-4.3,7.5-9,13.9-18.5,13.2c-5.4-0.4-6.2,6.7-2.5,9.3c5.9,4.1,13.9,2.4,19.6-1
		c6.2-3.6,10.2-10.2,12.8-16.7C737.2,1201.3,726.7,1197.3,723.3,1203.2z"/>
	<path fill="#FFFFFF" d="M705.5,1115.8c-3-2.8-6.2-4.4-10-5.8c-3.2-1.2-7-2.5-10.4-2c0,0,0,0,0,0.1c2.6,1.6,5.6,2.5,8.3,4
		c3.1,1.7,6,4.8,8.6,7.2C704.3,1121.4,707.8,1117.9,705.5,1115.8z"/>
	<path fill="#FFFFFF" d="M802,1071.5c-4.1,0-7.5,3.4-7.5,7.5s3.4,7.5,7.5,7.5s7.5-3.4,7.5-7.5S806.1,1071.5,802,1071.5z"/>
	<path fill="#FFFFFF" d="M802.7,1099.7c1.8,7.5-1.5,15.8-6.5,21.5c-4.8,5.5-11.8,7-17,11.6c-0.4,0.4-0.1,1,0.3,1.2
		c7.4,2.9,16.3-3.2,21.5-8c7.6-6.9,10.7-16.5,12.3-26.3C814.8,1090.4,800.6,1091.2,802.7,1099.7z"/>
	<path fill="#FFFFFF" d="M806.4,1195.4c-3-4.6-9.4-12.1-15.6-10.8c-0.2,0-0.2,0.2-0.2,0.4c0.6,4.3,4.9,8,7.2,11.5
		c2.5,3.8,6.2,12,2.5,16.3c-6.1,7.2,6.7,14.1,9.5,5.5C812.5,1209.8,811.3,1202.8,806.4,1195.4z"/>
	<path fill="#FFFFFF" d="M785.7,1206.9c-3.7,0-6.8,3.1-6.8,6.8c0,3.7,3.1,6.8,6.8,6.8c3.7,0,6.8-3.1,6.8-6.8
		C792.5,1210,789.4,1206.9,785.7,1206.9z"/>
	<path fill="#FFFFFF" d="M721.2,1221.1c-6.5,2.8-13.8,2.5-20.2-0.3c-0.1,0-0.3,0-0.2,0.2c3.7,9.3,14.7,8.5,22.6,5.3
		C727.1,1224.7,724.9,1219.5,721.2,1221.1z"/>
</g>
<g>
	<path fill="#36C5F3" d="M1000.2,1071.8c-17-8.4-29.7,11-34,24.4c-3,9.3-3.8,19.1-3.6,28.8c0.2,11.9-1.2,23.5-14.5,26.9
		c-11.3,2.9-20.1-8-21-18c-1-10.9,4.4-21.9,7.7-32c3-9.1,4.3-18.2,2.3-27.6c-1.9-9.1-9.6-13.8-17.9-16.2c-15.8-4.6-31.7,4-38.4,18.2
		c-9.3,15.8-12.9,35.7-12.5,53.7c0.4,18.2,7.1,36,19.5,49.4c12.4,13.3,35.9,16.6,52.3,9.9c10.1-4.1,20-7.8,30.3-2
		c10.3,5.8,9.2,18,2,25.6c-7.4,7.8-19.3,6.8-28.6,3.8c-12.1-3.9-21.9-12.6-34.9-5c-11.2,6.6-17,20.2-9.5,31.8
		c9.2,14.2,30.7,16.7,45.9,14.8c16.7-2.2,36.2-10.3,47.3-23.3c12.5-14.8,10.2-38.8,7.9-56.4c-1.4-10.5-3.7-21.8-3.2-32.8
		c0.5-11.6,5.2-20.6,9.5-31.1C1012.2,1101.1,1016.1,1079.7,1000.2,1071.8z"/>
	<path fill="#50DEFF" d="M903.7,1084.7c0.1,0,0.1,0.1,0.2,0.1c0,0,0,0,0,0C903.9,1084.8,903.8,1084.8,903.7,1084.7z"/>
	<path fill="#50DEFF" d="M926.6,1153.1c-1.6-2.7-5-2.3-6.9-4.9c-7.5-10.5-5.1-23.5,0.5-34.3c5.4-10.6,9.3-23.7,4.3-35.2
		c-3.5-8-18.1-16.2-23.9-5.8c-3.8,6.8-2.8,17.7-2.8,25.3c0.2,18,1.4,48.8,21.8,56.3c2.5,0.9,4.8,1.9,6.8-0.1
		C926.8,1154.1,926.9,1153.6,926.6,1153.1z"/>
	<path fill="#50DEFF" d="M991.6,1130.3c0.8-4.5,1.8-9,3-13.4c2.1-7.5,9-30.6-5-31c-9-0.2-13,10.3-15,17.4
		c-6.5,23-2.4,53.3,10.7,73.2c0.7,1.1,2.4,0.7,2.5-0.7C988.4,1161,989,1145.4,991.6,1130.3z"/>
	<path fill="#50DEFF" d="M971.3,1229.6c-3.1-0.6-8.5,2.1-10.5,2.7c-4.7,1.4-9.4,2.7-14.3,2.9c-10.4,0.4-16.9-4.6-23.2-12.3
		c-6.6-7.9-19.9-1.3-19.7,8.2c0.1,7.4,5.2,15.4,12.3,18.1c9.9,3.8,21.4,3.3,31.5,0.7c5.4-1.4,10.7-3.4,15.4-6.3
		c3.2-1.9,10.8-6.5,10.9-10.8C973.6,1230.8,972.7,1229.8,971.3,1229.6z"/>
	<path fill="#FFFFFF" d="M908.8,1067.1c-8.9,0-8.9,13.8,0,13.8S917.6,1067.1,908.8,1067.1z"/>
	<path fill="#FFFFFF" d="M920.4,1083.6c-0.2-0.1-0.6-0.1-0.7,0.2c-1.1,2.3-1.1,4.4-1.1,6.9c0.1,4.2-0.7,8.5-1.8,12.5
		c-2.1,7.6-6.3,14.4-7.6,22.2c-0.6,3.9,5.3,5.6,6,1.6c1.5-8.5,7.1-15.3,9.3-23.6C926,1097.7,926.4,1087.2,920.4,1083.6z"/>
	<path fill="#FFFFFF" d="M995.3,1084.9c-3.3-4.5-10.5-0.6-7.6,4.4c6.6,11.4,1.1,25.4,1.4,37.8c0,0,0.1,0.1,0.1,0
		C995.5,1115.8,1004.2,1097.2,995.3,1084.9z"/>
	<path fill="#FFFFFF" d="M909.5,1221.9c-9.8,0-9.8,15.3,0,15.3S919.3,1221.9,909.5,1221.9z"/>
	<path fill="#FFFFFF" d="M949,1245.8c-2.8,0-5.4-0.2-8.3-0.1c-3.1,0.2-6.3-0.1-9.4-0.6c-2.9-0.5-5.6-1.1-8.4-2
		c-2.7-0.9-5-2.5-7.7-3.4c-1.6-0.5-3,1.1-2.6,2.6c1.5,6.5,11.4,8.5,16.9,9.3c3.5,0.5,6.8,0,10.2-0.6c4.3-0.7,6.4-2.1,9.6-4.7
		C949.5,1246.2,949.3,1245.8,949,1245.8z"/>
</g>
<g>
	<path fill="#36C5F3" d="M1180.3,1210c-1.3-14.8-15.4-20.1-28.5-19.2c-18.2,1.2-35.3,10.9-53.8,7c-5.9-1.3,2.5-6.4,4.7-8.2
		c3.8-3,7.9-5.6,12-8.2c7.5-4.7,15.4-8.8,23-13.3c21.7-12.8,56.9-46,26.9-69.4c-12.2-9.5-28.5-11.5-43.1-14.8
		c-10.7-2.4-21.5-4.5-32.4-6.3c-10.1-1.6-21.9-5-31.8-1.2c-10.5,4-19,12.5-21.1,23.7c-2.8,15,7.6,29.6,22.7,31.1
		c8.6,0.8,16.8-2.6,24.5-6.2c9.4-4.4,21.2-6.7,31.5-6.1c11.3,0.6,24.5,11.8,11.6,22.1c-8.5,6.8-18.6,11.4-28.5,15.9
		c-16.6,7.6-33.5,15.2-46,29c-10.6,11.7-17.4,31-3.5,42.9c15.1,12.9,37.1,2.2,54.5,4.5c19.4,2.6,37.5,12.2,57.2,5.7
		C1172.9,1234.7,1181.5,1223.3,1180.3,1210z"/>
	<path fill="#50DEFF" d="M1116.1,1089.5c-6.7-2.7-13.8-4.8-20.9-6.5c-13.8-3.4-30.9-5.1-43.4,3c-14.3,9.3-1.7,31.2,13.4,22.9
		c10.1-5.6,20.5-6.1,32.6-5.9c7.2,0.1,14.7,1,21.9,0.1c0.9-0.1,9.5-1.5,9.1-3.5C1127.4,1094.4,1120.6,1091.3,1116.1,1089.5z"/>
	<path fill="#50DEFF" d="M1154.5,1209.1c-3.3,3.6-9.1,3.9-13.9,4.1c-8.9,0.4-17.7,0.6-26.6,1.5c-8,0.7-15.8,1.6-23.6,3.2
		c-4.2,0.9-8,2.9-12.3,3.6c-4.1,0.8-8.3,0.5-12.4,1.2c-0.8,0.1-1,1.5-0.2,1.9c3,1.4,6.3,1.6,9.6,1.9c4.8,0.4,9.9,1,14.7,0.8
		c9.6-0.3,18.5-1.5,28,1c16.6,4.4,38.3,10.2,52-4C1179.4,1214.3,1163.9,1198.9,1154.5,1209.1z"/>
	<path fill="#FFFFFF" d="M1152.1,1222.4c-4.4,3.5-10.2,4.2-15.6,4c-5.3-0.2-10.8-2.1-16-1.6c-0.6,0.1-1,0.8-0.5,1.3
		c3.9,4.2,12.9,5.1,18.3,5.5c6.5,0.4,12.2-1.6,17.2-5.6C1158,1223.8,1154.5,1220.4,1152.1,1222.4z"/>
	<path fill="#FFFFFF" d="M1162.3,1206.9c-3.7,0-6.9,3.1-6.9,6.9s3.1,6.9,6.9,6.9s6.9-3.1,6.9-6.9S1166,1206.9,1162.3,1206.9z"/>
	<path fill="#FFFFFF" d="M1054,1096.6c-9.8,0-9.8,15.3,0,15.3S1063.8,1096.6,1054,1096.6z"/>
	<path fill="#FFFFFF" d="M1128,1093.9c-5.5-1-11-1.2-16.4-2.6c-6-1.5-11.9-3.1-17.9-4.4c-10.3-2.1-21.4-2.6-31,2.3
		c-4.8,2.4-0.6,9.3,4.2,7.1c9.7-4.5,19.9-3.2,29.9-0.8c9.6,2.3,21.4,6.3,31.3,3.8C1130.6,1098.6,1130.8,1094.4,1128,1093.9z"/>
</g>
</svg>
